<svg width="443" height="289" viewBox="0 0 443 289" fill="none" xmlns="http://www.w3.org/2000/svg">
<ellipse cx="216.93" cy="145" rx="78" ry="77" stroke="#63F8C8" stroke-width="20"/>
<path fill-rule="evenodd" clip-rule="evenodd" d="M228.535 58.28C239.604 59.7799 250.566 63.4257 260.809 69.358C271.052 75.2903 279.67 82.9847 286.479 91.8395C289.846 96.2175 289.026 102.496 284.648 105.863C280.27 109.229 273.992 108.41 270.625 104.032C265.38 97.2113 258.732 91.2674 250.786 86.6649C242.839 82.0624 234.375 79.2541 225.849 78.0988C220.376 77.3572 216.541 72.3195 217.282 66.8466C218.024 61.3738 223.062 57.5384 228.535 58.28ZM177.771 77.2088C181.113 81.6058 180.258 87.8794 175.861 91.2213C169.016 96.4235 163.065 103.038 158.475 110.962C153.886 118.887 151.11 127.341 150.004 135.866C149.293 141.343 144.277 145.207 138.8 144.497C133.323 143.786 129.46 138.77 130.17 133.293C131.611 122.19 135.227 111.197 141.168 100.939C147.109 90.6811 154.845 82.0734 163.759 75.2983C168.156 71.9564 174.429 72.8118 177.771 77.2088ZM295.323 145.291C300.8 146.001 304.664 151.017 303.953 156.494C302.513 167.597 298.896 178.59 292.955 188.848C287.014 199.106 279.279 207.714 270.365 214.489C265.968 217.831 259.694 216.975 256.352 212.578C253.01 208.181 253.865 201.908 258.262 198.566C265.107 193.364 271.059 186.749 275.648 178.825C280.237 170.901 283.013 162.447 284.119 153.921C284.83 148.444 289.846 144.58 295.323 145.291ZM149.475 183.925C153.853 180.558 160.131 181.378 163.498 185.756C168.743 192.576 175.391 198.52 183.338 203.122C191.284 207.725 199.748 210.533 208.274 211.688C213.747 212.43 217.582 217.468 216.841 222.941C216.099 228.413 211.061 232.249 205.589 231.507C194.519 230.007 183.557 226.361 173.314 220.429C163.071 214.497 154.453 206.802 147.644 197.948C144.277 193.57 145.097 187.291 149.475 183.925Z" fill="#2E3049"/>
<path d="M127 41L129.802 35.9523L132.773 40.9031L127 41ZM132.273 37.4304C133.565 36.7592 134.837 36.1434 136.09 35.5812L136.499 36.4935C135.265 37.0476 134.01 37.655 132.734 38.3178L132.273 37.4304ZM140.023 33.9657C141.389 33.4576 142.731 33.0155 144.048 32.6367L144.324 33.5978C143.033 33.9692 141.715 34.4034 140.371 34.903L140.023 33.9657ZM148.193 31.635C149.631 31.3553 151.036 31.1543 152.41 31.0283L152.501 32.0242C151.162 32.1469 149.79 32.343 148.384 32.6166L148.193 31.635ZM156.671 30.8764C158.13 30.9088 159.548 31.03 160.927 31.2347L160.78 32.2239C159.443 32.0254 158.066 31.9076 156.648 31.8761L156.671 30.8764ZM165.106 32.1415C166.494 32.5415 167.834 33.0309 169.128 33.6029L168.723 34.5175C167.471 33.9636 166.173 33.4897 164.829 33.1024L165.106 32.1415ZM172.915 35.5886C174.13 36.3306 175.296 37.15 176.415 38.0394L175.792 38.822C174.705 37.9573 173.572 37.1617 172.394 36.442L172.915 35.5886ZM179.597 40.882C180.596 41.878 181.548 42.9338 182.456 44.0426L181.683 44.6762C180.795 43.5919 179.864 42.5611 178.891 41.5899L179.597 40.882ZM185.001 47.4556C185.79 48.618 186.539 49.8237 187.247 51.0667L186.378 51.5615C185.683 50.3403 184.948 49.1571 184.173 48.0177L185.001 47.4556ZM189.214 54.8329C189.519 55.4691 189.814 56.1128 190.099 56.7633L189.184 57.1652C188.902 56.5245 188.612 55.8908 188.312 55.2647L189.214 54.8329Z" fill="#717171"/>
<path d="M362.5 188.5L357.485 191.361L362.47 194.274L362.5 188.5ZM358.853 193.225C358.049 194.299 357.212 195.307 356.344 196.253L357.082 196.929C357.971 195.958 358.83 194.925 359.654 193.825L358.853 193.225ZM353.538 199.012C352.541 199.893 351.515 200.705 350.463 201.45L351.042 202.266C352.122 201.5 353.177 200.666 354.2 199.761L353.538 199.012ZM347.138 203.547C345.983 204.191 344.805 204.766 343.609 205.275L344 206.195C345.228 205.673 346.438 205.083 347.625 204.421L347.138 203.547ZM339.916 206.624C338.656 207.013 337.383 207.336 336.103 207.597L336.303 208.577C337.614 208.31 338.918 207.979 340.21 207.58L339.916 206.624ZM332.212 208.202C330.901 208.344 329.588 208.426 328.281 208.452L328.3 209.452C329.636 209.425 330.978 209.342 332.32 209.196L332.212 208.202ZM324.338 208.361C323.017 208.274 321.709 208.133 320.42 207.942L320.273 208.931C321.589 209.126 322.924 209.27 324.273 209.358L324.338 208.361ZM316.542 207.204C315.244 206.901 313.974 206.549 312.742 206.152L312.435 207.104C313.694 207.509 314.99 207.869 316.315 208.178L316.542 207.204ZM309.049 204.784C307.809 204.261 306.62 203.692 305.494 203.084L305.019 203.964C306.174 204.588 307.392 205.171 308.661 205.705L309.049 204.784ZM302.142 201.031C301.025 200.255 300.001 199.437 299.085 198.589L298.405 199.322C299.359 200.206 300.42 201.052 301.572 201.852L302.142 201.031ZM296.482 195.708C296.09 195.175 295.741 194.636 295.436 194.093L294.564 194.582C294.89 195.164 295.262 195.737 295.677 196.301L296.482 195.708Z" fill="#717171"/>
<circle cx="192.5" cy="61.5" r="9" fill="#63F8C8" stroke="white" stroke-width="3"/>
<circle cx="290.5" cy="192.5" r="9" fill="#2E3049" stroke="white" stroke-width="3"/>
<path d="M63.5527 55.0098C63.5527 55.8457 63.4121 56.5762 63.1309 57.2012C62.8496 57.8223 62.4512 58.2969 61.9355 58.625C61.4199 58.9531 60.8184 59.1172 60.1309 59.1172C59.459 59.1172 58.8633 58.9531 58.3438 58.625C57.8242 58.293 57.4199 57.8223 57.1309 57.2129C56.8457 56.5996 56.6992 55.8906 56.6914 55.0859V54.4707C56.6914 53.6504 56.834 52.9258 57.1191 52.2969C57.4043 51.668 57.8066 51.1875 58.3262 50.8555C58.8496 50.5195 59.4473 50.3516 60.1191 50.3516C60.8027 50.3516 61.4043 50.5176 61.9238 50.8496C62.4473 51.1777 62.8496 51.6562 63.1309 52.2852C63.4121 52.9102 63.5527 53.6387 63.5527 54.4707V55.0098ZM62.4336 54.459C62.4336 53.4473 62.2305 52.6719 61.8242 52.1328C61.418 51.5898 60.8496 51.3184 60.1191 51.3184C59.4082 51.3184 58.8477 51.5898 58.4375 52.1328C58.0312 52.6719 57.8223 53.4219 57.8105 54.3828V55.0098C57.8105 55.9902 58.0156 56.7617 58.4258 57.3242C58.8398 57.8828 59.4082 58.1621 60.1309 58.1621C60.8574 58.1621 61.4199 57.8984 61.8184 57.3711C62.2168 56.8398 62.4219 56.0801 62.4336 55.0918V54.459ZM67.6133 58.2324C68 58.2324 68.3379 58.1152 68.627 57.8809C68.916 57.6465 69.0762 57.3535 69.1074 57.002H70.1328C70.1133 57.3652 69.9883 57.7109 69.7578 58.0391C69.5273 58.3672 69.2188 58.6289 68.832 58.8242C68.4492 59.0195 68.043 59.1172 67.6133 59.1172C66.75 59.1172 66.0625 58.8301 65.5508 58.2559C65.043 57.6777 64.7891 56.8887 64.7891 55.8887V55.707C64.7891 55.0898 64.9023 54.541 65.1289 54.0605C65.3555 53.5801 65.6797 53.207 66.1016 52.9414C66.5273 52.6758 67.0293 52.543 67.6074 52.543C68.3184 52.543 68.9082 52.7559 69.377 53.1816C69.8496 53.6074 70.1016 54.1602 70.1328 54.8398H69.1074C69.0762 54.4297 68.9199 54.0938 68.6387 53.832C68.3613 53.5664 68.0176 53.4336 67.6074 53.4336C67.0566 53.4336 66.6289 53.6328 66.3242 54.0312C66.0234 54.4258 65.873 54.998 65.873 55.748V55.9531C65.873 56.6836 66.0234 57.2461 66.3242 57.6406C66.625 58.0352 67.0547 58.2324 67.6133 58.2324ZM76.5312 59H75.4473V56.293H72.5352V59H71.4453V52.6602H72.5352V55.4082H75.4473V52.6602H76.5312V59ZM77.9902 55.7715C77.9902 55.1504 78.1113 54.5918 78.3535 54.0957C78.5996 53.5996 78.9395 53.2168 79.373 52.9473C79.8105 52.6777 80.3086 52.543 80.8672 52.543C81.7305 52.543 82.4277 52.8418 82.959 53.4395C83.4941 54.0371 83.7617 54.832 83.7617 55.8242V55.9004C83.7617 56.5176 83.6426 57.0723 83.4043 57.5645C83.1699 58.0527 82.832 58.4336 82.3906 58.707C81.9531 58.9805 81.4492 59.1172 80.8789 59.1172C80.0195 59.1172 79.3223 58.8184 78.7871 58.2207C78.2559 57.623 77.9902 56.832 77.9902 55.8477V55.7715ZM79.0801 55.9004C79.0801 56.6035 79.2422 57.168 79.5664 57.5938C79.8945 58.0195 80.332 58.2324 80.8789 58.2324C81.4297 58.2324 81.8672 58.0176 82.1914 57.5879C82.5156 57.1543 82.6777 56.5488 82.6777 55.7715C82.6777 55.0762 82.5117 54.5137 82.1797 54.084C81.8516 53.6504 81.4141 53.4336 80.8672 53.4336C80.332 53.4336 79.9004 53.6465 79.5723 54.0723C79.2441 54.498 79.0801 55.1074 79.0801 55.9004ZM85.2207 59V52.6602H87.6934C88.5371 52.6602 89.1836 52.8086 89.6328 53.1055C90.0859 53.3984 90.3125 53.8301 90.3125 54.4004C90.3125 54.6934 90.2246 54.959 90.0488 55.1973C89.873 55.4316 89.6133 55.6113 89.2695 55.7363C89.6523 55.8262 89.959 56.002 90.1895 56.2637C90.4238 56.5254 90.541 56.8379 90.541 57.2012C90.541 57.7832 90.3262 58.2285 89.8965 58.5371C89.4707 58.8457 88.8672 59 88.0859 59H85.2207ZM86.3047 56.2168V58.127H88.0977C88.5508 58.127 88.8887 58.043 89.1113 57.875C89.3379 57.707 89.4512 57.4707 89.4512 57.166C89.4512 56.5332 88.9863 56.2168 88.0566 56.2168H86.3047ZM86.3047 55.3496H87.7051C88.7207 55.3496 89.2285 55.0527 89.2285 54.459C89.2285 53.8652 88.748 53.5586 87.7871 53.5391H86.3047V55.3496ZM97.1562 59H96.0723V56.293H93.1602V59H92.0703V52.6602H93.1602V55.4082H96.0723V52.6602H97.1562V59ZM98.6152 55.7715C98.6152 55.1504 98.7363 54.5918 98.9785 54.0957C99.2246 53.5996 99.5645 53.2168 99.998 52.9473C100.436 52.6777 100.934 52.543 101.492 52.543C102.355 52.543 103.053 52.8418 103.584 53.4395C104.119 54.0371 104.387 54.832 104.387 55.8242V55.9004C104.387 56.5176 104.268 57.0723 104.029 57.5645C103.795 58.0527 103.457 58.4336 103.016 58.707C102.578 58.9805 102.074 59.1172 101.504 59.1172C100.645 59.1172 99.9473 58.8184 99.4121 58.2207C98.8809 57.623 98.6152 56.832 98.6152 55.8477V55.7715ZM99.7051 55.9004C99.7051 56.6035 99.8672 57.168 100.191 57.5938C100.52 58.0195 100.957 58.2324 101.504 58.2324C102.055 58.2324 102.492 58.0176 102.816 57.5879C103.141 57.1543 103.303 56.5488 103.303 55.7715C103.303 55.0762 103.137 54.5137 102.805 54.084C102.477 53.6504 102.039 53.4336 101.492 53.4336C100.957 53.4336 100.525 53.6465 100.197 54.0723C99.8691 54.498 99.7051 55.1074 99.7051 55.9004ZM109.848 52.6602H110.932V59H109.848V54.377L106.924 59H105.84V52.6602H106.924V57.2891L109.848 52.6602ZM110.141 50.3516C110.141 50.8242 109.979 51.2051 109.654 51.4941C109.334 51.7793 108.912 51.9219 108.389 51.9219C107.865 51.9219 107.441 51.7773 107.117 51.4883C106.793 51.1992 106.631 50.8203 106.631 50.3516H107.516C107.516 50.625 107.59 50.8398 107.738 50.9961C107.887 51.1484 108.104 51.2246 108.389 51.2246C108.662 51.2246 108.875 51.1484 109.027 50.9961C109.184 50.8438 109.262 50.6289 109.262 50.3516H110.141ZM117.623 56.2988H116.832V59H115.742V52.6602H116.832V55.3438H117.541L119.674 52.6602H120.986L118.479 55.707L121.197 59H119.82L117.623 56.2988ZM121.713 55.7715C121.713 55.1504 121.834 54.5918 122.076 54.0957C122.322 53.5996 122.662 53.2168 123.096 52.9473C123.533 52.6777 124.031 52.543 124.59 52.543C125.453 52.543 126.15 52.8418 126.682 53.4395C127.217 54.0371 127.484 54.832 127.484 55.8242V55.9004C127.484 56.5176 127.365 57.0723 127.127 57.5645C126.893 58.0527 126.555 58.4336 126.113 58.707C125.676 58.9805 125.172 59.1172 124.602 59.1172C123.742 59.1172 123.045 58.8184 122.51 58.2207C121.979 57.623 121.713 56.832 121.713 55.8477V55.7715ZM122.803 55.9004C122.803 56.6035 122.965 57.168 123.289 57.5938C123.617 58.0195 124.055 58.2324 124.602 58.2324C125.152 58.2324 125.59 58.0176 125.914 57.5879C126.238 57.1543 126.4 56.5488 126.4 55.7715C126.4 55.0762 126.234 54.5137 125.902 54.084C125.574 53.6504 125.137 53.4336 124.59 53.4336C124.055 53.4336 123.623 53.6465 123.295 54.0723C122.967 54.498 122.803 55.1074 122.803 55.9004ZM134.023 59H132.939V56.293H130.027V59H128.938V52.6602H130.027V55.4082H132.939V52.6602H134.023V59ZM140.48 53.5391H138.354V59H137.27V53.5391H135.184V52.6602H140.48V53.5391ZM143.697 59.1172C142.838 59.1172 142.139 58.8359 141.6 58.2734C141.061 57.707 140.791 56.9512 140.791 56.0059V55.8066C140.791 55.1777 140.91 54.6172 141.148 54.125C141.391 53.6289 141.727 53.2422 142.156 52.9648C142.59 52.6836 143.059 52.543 143.562 52.543C144.387 52.543 145.027 52.8145 145.484 53.3574C145.941 53.9004 146.17 54.6777 146.17 55.6895V56.1406H141.875C141.891 56.7656 142.072 57.2715 142.42 57.6582C142.771 58.041 143.217 58.2324 143.756 58.2324C144.139 58.2324 144.463 58.1543 144.729 57.998C144.994 57.8418 145.227 57.6348 145.426 57.377L146.088 57.8926C145.557 58.709 144.76 59.1172 143.697 59.1172ZM143.562 53.4336C143.125 53.4336 142.758 53.5938 142.461 53.9141C142.164 54.2305 141.98 54.6758 141.91 55.25H145.086V55.168C145.055 54.6172 144.906 54.1914 144.641 53.8906C144.375 53.5859 144.016 53.4336 143.562 53.4336ZM152.609 59H151.525V56.293H148.613V59H147.523V52.6602H148.613V55.4082H151.525V52.6602H152.609V59ZM159.066 53.5391H156.939V59H155.855V53.5391H153.77V52.6602H159.066V53.5391Z" fill="black"/>
<path d="M366.56 165H365.651V158.979L363.83 159.648V158.828L366.418 157.856H366.56V165ZM373.664 161.968C373.664 163.026 373.483 163.812 373.122 164.326C372.761 164.84 372.196 165.098 371.428 165.098C370.669 165.098 370.108 164.847 369.743 164.346C369.379 163.841 369.19 163.089 369.177 162.09V160.884C369.177 159.839 369.357 159.062 369.719 158.555C370.08 158.047 370.646 157.793 371.418 157.793C372.183 157.793 372.746 158.039 373.107 158.53C373.469 159.019 373.654 159.774 373.664 160.796V161.968ZM372.761 160.732C372.761 159.967 372.653 159.411 372.438 159.062C372.224 158.711 371.883 158.535 371.418 158.535C370.956 158.535 370.619 158.709 370.407 159.058C370.196 159.406 370.087 159.941 370.08 160.664V162.109C370.08 162.878 370.191 163.446 370.412 163.813C370.637 164.178 370.975 164.36 371.428 164.36C371.874 164.36 372.204 164.188 372.419 163.843C372.637 163.498 372.751 162.954 372.761 162.212V160.732ZM380.437 163.804L382.233 159.717H383.361V165H382.458V161.157L380.749 165H380.124L378.381 161.074V165H377.478V159.717H378.649L380.437 163.804ZM388.234 159.717H389.138V165H388.234V161.147L385.798 165H384.895V159.717H385.798V163.574L388.234 159.717ZM394.904 165H394.001V162.744H391.574V165H390.666V159.717H391.574V162.007H394.001V159.717H394.904V165ZM398.088 163.677L399.318 159.717H400.285L398.161 165.815C397.832 166.694 397.31 167.134 396.594 167.134L396.423 167.119L396.086 167.056V166.323L396.33 166.343C396.636 166.343 396.874 166.281 397.043 166.157C397.215 166.034 397.357 165.807 397.468 165.479L397.668 164.941L395.783 159.717H396.77L398.088 163.677ZM405.021 160.449H403.249V165H402.346V160.449H400.607V159.717H405.021V160.449Z" fill="#C2C2C2"/>
<path d="M42.0059 69.4355L42.3672 65.8906H46.0098V66.7256H43.1338L42.9189 68.6641C43.2673 68.459 43.6628 68.3564 44.1055 68.3564C44.7533 68.3564 45.2676 68.5713 45.6484 69.001C46.0293 69.4274 46.2197 70.0052 46.2197 70.7344C46.2197 71.4668 46.0212 72.0446 45.624 72.4678C45.2301 72.8877 44.6784 73.0977 43.9688 73.0977C43.3405 73.0977 42.8278 72.9235 42.4307 72.5752C42.0335 72.2269 41.8073 71.7451 41.752 71.1299H42.6064C42.6618 71.5368 42.8066 71.8444 43.041 72.0527C43.2754 72.2578 43.5846 72.3604 43.9688 72.3604C44.3887 72.3604 44.7174 72.2171 44.9551 71.9307C45.196 71.6442 45.3164 71.2487 45.3164 70.7441C45.3164 70.2689 45.1862 69.888 44.9258 69.6016C44.6686 69.3118 44.3252 69.167 43.8955 69.167C43.5016 69.167 43.1924 69.2533 42.9678 69.4258L42.7285 69.6211L42.0059 69.4355ZM52.8213 71.8037L54.6182 67.7168H55.7461V73H54.8428V69.1572L53.1338 73H52.5088L50.7656 69.0742V73H49.8623V67.7168H51.0342L52.8213 71.8037ZM60.6191 67.7168H61.5225V73H60.6191V69.1475L58.1826 73H57.2793V67.7168H58.1826V71.5742L60.6191 67.7168ZM67.2891 73H66.3857V70.7441H63.959V73H63.0508V67.7168H63.959V70.0068H66.3857V67.7168H67.2891V73ZM70.4727 71.6768L71.7031 67.7168H72.6699L70.5459 73.8154C70.2171 74.6943 69.6947 75.1338 68.9785 75.1338L68.8076 75.1191L68.4707 75.0557V74.3232L68.7148 74.3428C69.0208 74.3428 69.2585 74.2809 69.4277 74.1572C69.6003 74.0335 69.7419 73.8073 69.8525 73.4785L70.0527 72.9414L68.168 67.7168H69.1543L70.4727 71.6768ZM77.4062 68.4492H75.6338V73H74.7305V68.4492H72.9922V67.7168H77.4062V68.4492Z" fill="#C2C2C2"/>
<path d="M345.115 175.66V179H343.99V170.469H347.137C348.07 170.469 348.801 170.707 349.328 171.184C349.859 171.66 350.125 172.291 350.125 173.076C350.125 173.904 349.865 174.543 349.346 174.992C348.83 175.438 348.09 175.66 347.125 175.66H345.115ZM345.115 174.74H347.137C347.738 174.74 348.199 174.6 348.52 174.318C348.84 174.033 349 173.623 349 173.088C349 172.58 348.84 172.174 348.52 171.869C348.199 171.564 347.76 171.406 347.201 171.395H345.115V174.74ZM353.939 179.117C353.08 179.117 352.381 178.836 351.842 178.273C351.303 177.707 351.033 176.951 351.033 176.006V175.807C351.033 175.178 351.152 174.617 351.391 174.125C351.633 173.629 351.969 173.242 352.398 172.965C352.832 172.684 353.301 172.543 353.805 172.543C354.629 172.543 355.27 172.814 355.727 173.357C356.184 173.9 356.412 174.678 356.412 175.689V176.141H352.117C352.133 176.766 352.314 177.271 352.662 177.658C353.014 178.041 353.459 178.232 353.998 178.232C354.381 178.232 354.705 178.154 354.971 177.998C355.236 177.842 355.469 177.635 355.668 177.377L356.33 177.893C355.799 178.709 355.002 179.117 353.939 179.117ZM353.805 173.434C353.367 173.434 353 173.594 352.703 173.914C352.406 174.23 352.223 174.676 352.152 175.25H355.328V175.168C355.297 174.617 355.148 174.191 354.883 173.891C354.617 173.586 354.258 173.434 353.805 173.434ZM359.646 176.299H358.855V179H357.766V172.66H358.855V175.344H359.564L361.697 172.66H363.01L360.502 175.707L363.221 179H361.844L359.646 176.299ZM369.35 172.66V179H368.26V173.557H366.104L365.975 175.93C365.904 177.02 365.721 177.799 365.424 178.268C365.131 178.736 364.664 178.98 364.023 179H363.59V178.045L363.9 178.021C364.252 177.982 364.504 177.779 364.656 177.412C364.809 177.045 364.906 176.365 364.949 175.373L365.066 172.66H369.35ZM375.004 179C374.941 178.875 374.891 178.652 374.852 178.332C374.348 178.855 373.746 179.117 373.047 179.117C372.422 179.117 371.908 178.941 371.506 178.59C371.107 178.234 370.908 177.785 370.908 177.242C370.908 176.582 371.158 176.07 371.658 175.707C372.162 175.34 372.869 175.156 373.779 175.156H374.834V174.658C374.834 174.279 374.721 173.979 374.494 173.756C374.268 173.529 373.934 173.416 373.492 173.416C373.105 173.416 372.781 173.514 372.52 173.709C372.258 173.904 372.127 174.141 372.127 174.418H371.037C371.037 174.102 371.148 173.797 371.371 173.504C371.598 173.207 371.902 172.973 372.285 172.801C372.672 172.629 373.096 172.543 373.557 172.543C374.287 172.543 374.859 172.727 375.273 173.094C375.688 173.457 375.902 173.959 375.918 174.6V177.518C375.918 178.1 375.992 178.562 376.141 178.906V179H375.004ZM373.205 178.174C373.545 178.174 373.867 178.086 374.172 177.91C374.477 177.734 374.697 177.506 374.834 177.225V175.924H373.984C372.656 175.924 371.992 176.312 371.992 177.09C371.992 177.43 372.105 177.695 372.332 177.887C372.559 178.078 372.85 178.174 373.205 178.174ZM381.268 177.564L383.424 172.66H384.777V179H383.693V174.389L381.643 179H380.893L378.801 174.289V179H377.717V172.66H379.123L381.268 177.564ZM390.438 179C390.375 178.875 390.324 178.652 390.285 178.332C389.781 178.855 389.18 179.117 388.48 179.117C387.855 179.117 387.342 178.941 386.939 178.59C386.541 178.234 386.342 177.785 386.342 177.242C386.342 176.582 386.592 176.07 387.092 175.707C387.596 175.34 388.303 175.156 389.213 175.156H390.268V174.658C390.268 174.279 390.154 173.979 389.928 173.756C389.701 173.529 389.367 173.416 388.926 173.416C388.539 173.416 388.215 173.514 387.953 173.709C387.691 173.904 387.561 174.141 387.561 174.418H386.471C386.471 174.102 386.582 173.797 386.805 173.504C387.031 173.207 387.336 172.973 387.719 172.801C388.105 172.629 388.529 172.543 388.99 172.543C389.721 172.543 390.293 172.727 390.707 173.094C391.121 173.457 391.336 173.959 391.352 174.6V177.518C391.352 178.1 391.426 178.562 391.574 178.906V179H390.438ZM388.639 178.174C388.979 178.174 389.301 178.086 389.605 177.91C389.91 177.734 390.131 177.506 390.268 177.225V175.924H389.418C388.09 175.924 387.426 176.312 387.426 177.09C387.426 177.43 387.539 177.695 387.766 177.887C387.992 178.078 388.283 178.174 388.639 178.174Z" fill="black"/>
<line x1="15.5" y1="25" x2="15.5" y2="289" stroke="#C2C2C2" stroke-dasharray="5 5"/>
<line x1="428.5" y1="25" x2="428.5" y2="289" stroke="#C2C2C2" stroke-dasharray="5 5"/>
<path d="M4.27148 11H3.18164V3.77539L0.996094 4.57812V3.59375L4.10156 2.42773H4.27148V11ZM13.0371 11H7.44727V10.2207L10.4004 6.93945C10.8379 6.44336 11.1387 6.04102 11.3027 5.73242C11.4707 5.41992 11.5547 5.09766 11.5547 4.76562C11.5547 4.32031 11.4199 3.95508 11.1504 3.66992C10.8809 3.38477 10.5215 3.24219 10.0723 3.24219C9.5332 3.24219 9.11328 3.39648 8.8125 3.70508C8.51562 4.00977 8.36719 4.43555 8.36719 4.98242H7.2832C7.2832 4.19727 7.53516 3.5625 8.03906 3.07812C8.54688 2.59375 9.22461 2.35156 10.0723 2.35156C10.8652 2.35156 11.4922 2.56055 11.9531 2.97852C12.4141 3.39258 12.6445 3.94531 12.6445 4.63672C12.6445 5.47656 12.1094 6.47656 11.0391 7.63672L8.75391 10.1152H13.0371V11ZM14.2617 10.4316C14.2617 10.2441 14.3164 10.0879 14.4258 9.96289C14.5391 9.83789 14.707 9.77539 14.9297 9.77539C15.1523 9.77539 15.3203 9.83789 15.4336 9.96289C15.5508 10.0879 15.6094 10.2441 15.6094 10.4316C15.6094 10.6113 15.5508 10.7617 15.4336 10.8828C15.3203 11.0039 15.1523 11.0645 14.9297 11.0645C14.707 11.0645 14.5391 11.0039 14.4258 10.8828C14.3164 10.7617 14.2617 10.6113 14.2617 10.4316ZM14.2676 5.25781C14.2676 5.07031 14.3223 4.91406 14.4316 4.78906C14.5449 4.66406 14.7129 4.60156 14.9355 4.60156C15.1582 4.60156 15.3262 4.66406 15.4395 4.78906C15.5566 4.91406 15.6152 5.07031 15.6152 5.25781C15.6152 5.4375 15.5566 5.58789 15.4395 5.70898C15.3262 5.83008 15.1582 5.89062 14.9355 5.89062C14.7129 5.89062 14.5449 5.83008 14.4316 5.70898C14.3223 5.58789 14.2676 5.4375 14.2676 5.25781ZM22.4414 7.36133C22.4414 8.63086 22.2246 9.57422 21.791 10.1914C21.3574 10.8086 20.6797 11.1172 19.7578 11.1172C18.8477 11.1172 18.1738 10.8164 17.7363 10.2148C17.2988 9.60938 17.0723 8.70703 17.0566 7.50781V6.06055C17.0566 4.80664 17.2734 3.875 17.707 3.26562C18.1406 2.65625 18.8203 2.35156 19.7461 2.35156C20.6641 2.35156 21.3398 2.64648 21.7734 3.23633C22.207 3.82227 22.4297 4.72852 22.4414 5.95508V7.36133ZM21.3574 5.87891C21.3574 4.96094 21.2285 4.29297 20.9707 3.875C20.7129 3.45312 20.3047 3.24219 19.7461 3.24219C19.1914 3.24219 18.7871 3.45117 18.5332 3.86914C18.2793 4.28711 18.1484 4.92969 18.1406 5.79688V7.53125C18.1406 8.45312 18.2734 9.13477 18.5391 9.57617C18.8086 10.0137 19.2148 10.2324 19.7578 10.2324C20.293 10.2324 20.6895 10.0254 20.9473 9.61133C21.209 9.19727 21.3457 8.54492 21.3574 7.6543V5.87891ZM29.1797 7.36133C29.1797 8.63086 28.9629 9.57422 28.5293 10.1914C28.0957 10.8086 27.418 11.1172 26.4961 11.1172C25.5859 11.1172 24.9121 10.8164 24.4746 10.2148C24.0371 9.60938 23.8105 8.70703 23.7949 7.50781V6.06055C23.7949 4.80664 24.0117 3.875 24.4453 3.26562C24.8789 2.65625 25.5586 2.35156 26.4844 2.35156C27.4023 2.35156 28.0781 2.64648 28.5117 3.23633C28.9453 3.82227 29.168 4.72852 29.1797 5.95508V7.36133ZM28.0957 5.87891C28.0957 4.96094 27.9668 4.29297 27.709 3.875C27.4512 3.45312 27.043 3.24219 26.4844 3.24219C25.9297 3.24219 25.5254 3.45117 25.2715 3.86914C25.0176 4.28711 24.8867 4.92969 24.8789 5.79688V7.53125C24.8789 8.45312 25.0117 9.13477 25.2773 9.57617C25.5469 10.0137 25.9531 10.2324 26.4961 10.2324C27.0312 10.2324 27.4277 10.0254 27.6855 9.61133C27.9473 9.19727 28.084 8.54492 28.0957 7.6543V5.87891Z" fill="#C2C2C2"/>
<path d="M417.271 11H416.182V3.77539L413.996 4.57812V3.59375L417.102 2.42773H417.271V11ZM422.023 6.20703H422.838C423.35 6.19922 423.752 6.06445 424.045 5.80273C424.338 5.54102 424.484 5.1875 424.484 4.74219C424.484 3.74219 423.986 3.24219 422.99 3.24219C422.521 3.24219 422.146 3.37695 421.865 3.64648C421.588 3.91211 421.449 4.26562 421.449 4.70703H420.365C420.365 4.03125 420.611 3.4707 421.104 3.02539C421.6 2.57617 422.229 2.35156 422.99 2.35156C423.795 2.35156 424.426 2.56445 424.883 2.99023C425.34 3.41602 425.568 4.00781 425.568 4.76562C425.568 5.13672 425.447 5.49609 425.205 5.84375C424.967 6.19141 424.641 6.45117 424.227 6.62305C424.695 6.77148 425.057 7.01758 425.311 7.36133C425.568 7.70508 425.697 8.125 425.697 8.62109C425.697 9.38672 425.447 9.99414 424.947 10.4434C424.447 10.8926 423.797 11.1172 422.996 11.1172C422.195 11.1172 421.543 10.9004 421.039 10.4668C420.539 10.0332 420.289 9.46094 420.289 8.75H421.379C421.379 9.19922 421.525 9.55859 421.818 9.82812C422.111 10.0977 422.504 10.2324 422.996 10.2324C423.52 10.2324 423.92 10.0957 424.197 9.82227C424.475 9.54883 424.613 9.15625 424.613 8.64453C424.613 8.14844 424.461 7.76758 424.156 7.50195C423.852 7.23633 423.412 7.09961 422.838 7.0918H422.023V6.20703ZM427.262 10.4316C427.262 10.2441 427.316 10.0879 427.426 9.96289C427.539 9.83789 427.707 9.77539 427.93 9.77539C428.152 9.77539 428.32 9.83789 428.434 9.96289C428.551 10.0879 428.609 10.2441 428.609 10.4316C428.609 10.6113 428.551 10.7617 428.434 10.8828C428.32 11.0039 428.152 11.0645 427.93 11.0645C427.707 11.0645 427.539 11.0039 427.426 10.8828C427.316 10.7617 427.262 10.6113 427.262 10.4316ZM427.268 5.25781C427.268 5.07031 427.322 4.91406 427.432 4.78906C427.545 4.66406 427.713 4.60156 427.936 4.60156C428.158 4.60156 428.326 4.66406 428.439 4.78906C428.557 4.91406 428.615 5.07031 428.615 5.25781C428.615 5.4375 428.557 5.58789 428.439 5.70898C428.326 5.83008 428.158 5.89062 427.936 5.89062C427.713 5.89062 427.545 5.83008 427.432 5.70898C427.322 5.58789 427.268 5.4375 427.268 5.25781ZM435.441 7.36133C435.441 8.63086 435.225 9.57422 434.791 10.1914C434.357 10.8086 433.68 11.1172 432.758 11.1172C431.848 11.1172 431.174 10.8164 430.736 10.2148C430.299 9.60938 430.072 8.70703 430.057 7.50781V6.06055C430.057 4.80664 430.273 3.875 430.707 3.26562C431.141 2.65625 431.82 2.35156 432.746 2.35156C433.664 2.35156 434.34 2.64648 434.773 3.23633C435.207 3.82227 435.43 4.72852 435.441 5.95508V7.36133ZM434.357 5.87891C434.357 4.96094 434.229 4.29297 433.971 3.875C433.713 3.45312 433.305 3.24219 432.746 3.24219C432.191 3.24219 431.787 3.45117 431.533 3.86914C431.279 4.28711 431.148 4.92969 431.141 5.79688V7.53125C431.141 8.45312 431.273 9.13477 431.539 9.57617C431.809 10.0137 432.215 10.2324 432.758 10.2324C433.293 10.2324 433.689 10.0254 433.947 9.61133C434.209 9.19727 434.346 8.54492 434.357 7.6543V5.87891ZM442.18 7.36133C442.18 8.63086 441.963 9.57422 441.529 10.1914C441.096 10.8086 440.418 11.1172 439.496 11.1172C438.586 11.1172 437.912 10.8164 437.475 10.2148C437.037 9.60938 436.811 8.70703 436.795 7.50781V6.06055C436.795 4.80664 437.012 3.875 437.445 3.26562C437.879 2.65625 438.559 2.35156 439.484 2.35156C440.402 2.35156 441.078 2.64648 441.512 3.23633C441.945 3.82227 442.168 4.72852 442.18 5.95508V7.36133ZM441.096 5.87891C441.096 4.96094 440.967 4.29297 440.709 3.875C440.451 3.45312 440.043 3.24219 439.484 3.24219C438.93 3.24219 438.525 3.45117 438.271 3.86914C438.018 4.28711 437.887 4.92969 437.879 5.79688V7.53125C437.879 8.45312 438.012 9.13477 438.277 9.57617C438.547 10.0137 438.953 10.2324 439.496 10.2324C440.031 10.2324 440.428 10.0254 440.686 9.61133C440.947 9.19727 441.084 8.54492 441.096 7.6543V5.87891Z" fill="#C2C2C2"/>
</svg>
