<svg width="640" height="316" viewBox="0 0 640 316" fill="none" xmlns="http://www.w3.org/2000/svg">
<path d="M80.9141 29H79.1914V24.5771H74.7412V29H73.0117V19.0469H74.7412V23.1895H79.1914V19.0469H80.9141V29ZM82.4932 25.2334C82.4932 24.5088 82.6367 23.8571 82.9238 23.2783C83.2109 22.695 83.6143 22.2484 84.1338 21.9385C84.6533 21.624 85.2503 21.4668 85.9248 21.4668C86.9229 21.4668 87.7318 21.7881 88.3516 22.4307C88.9759 23.0732 89.3132 23.9255 89.3633 24.9873L89.3701 25.377C89.3701 26.1061 89.2288 26.7578 88.9463 27.332C88.6683 27.9062 88.2673 28.3506 87.7432 28.665C87.2236 28.9795 86.6221 29.1367 85.9385 29.1367C84.8949 29.1367 84.0586 28.7904 83.4297 28.0977C82.8053 27.4004 82.4932 26.473 82.4932 25.3154V25.2334ZM84.1543 25.377C84.1543 26.138 84.3115 26.735 84.626 27.168C84.9404 27.5964 85.3779 27.8105 85.9385 27.8105C86.499 27.8105 86.9342 27.5918 87.2441 27.1543C87.5586 26.7168 87.7158 26.0765 87.7158 25.2334C87.7158 24.486 87.554 23.8936 87.2305 23.4561C86.9115 23.0186 86.4762 22.7998 85.9248 22.7998C85.3825 22.7998 84.9518 23.0163 84.6328 23.4492C84.3138 23.8776 84.1543 24.5202 84.1543 25.377ZM96.6982 21.6035V29H95.0439V26.2861H93.4922L91.9131 29H90.1904L91.9336 26.0127C91.4779 25.8213 91.127 25.5479 90.8809 25.1924C90.6393 24.8369 90.5186 24.429 90.5186 23.9688C90.5186 23.2806 90.7829 22.7178 91.3115 22.2803C91.8447 21.8382 92.5625 21.6126 93.4648 21.6035H96.6982ZM92.1797 24.0098C92.1797 24.3197 92.2936 24.5726 92.5215 24.7686C92.7539 24.96 93.0501 25.0557 93.4102 25.0557H95.0439V22.9229H93.5127C93.1071 22.9229 92.7835 23.0254 92.542 23.2305C92.3005 23.4355 92.1797 23.6953 92.1797 24.0098ZM102.023 22.0137C102.953 22.0137 103.698 22.3258 104.259 22.9502C104.819 23.57 105.1 24.4131 105.1 25.4795V25.5615C105.1 26.6279 104.794 27.4915 104.184 28.1523C103.577 28.8132 102.753 29.1436 101.709 29.1436C100.693 29.1436 99.8724 28.8063 99.248 28.1318C98.6237 27.4574 98.3115 26.5368 98.3115 25.3701V24.8916C98.3115 23.2965 98.5941 22.0342 99.1592 21.1045C99.7243 20.1748 100.567 19.5938 101.688 19.3613C102.317 19.2337 102.723 19.0993 102.905 18.958C103.092 18.8122 103.186 18.6162 103.186 18.3701H104.525C104.525 18.8304 104.45 19.2041 104.3 19.4912C104.149 19.7783 103.919 20.013 103.609 20.1953C103.299 20.373 102.766 20.5417 102.01 20.7012C101.317 20.847 100.788 21.1068 100.424 21.4805C100.064 21.8542 99.8223 22.3714 99.6992 23.0322C100.36 22.3532 101.135 22.0137 102.023 22.0137ZM101.695 23.3467C101.158 23.3467 100.736 23.529 100.431 23.8936C100.125 24.2536 99.9727 24.8096 99.9727 25.5615C99.9727 26.2725 100.123 26.8262 100.424 27.2227C100.725 27.6191 101.153 27.8174 101.709 27.8174C102.26 27.8174 102.687 27.6191 102.987 27.2227C103.293 26.8216 103.445 26.2201 103.445 25.418C103.445 24.7799 103.293 24.2764 102.987 23.9072C102.687 23.5335 102.256 23.3467 101.695 23.3467ZM112.756 25.377C112.756 26.5208 112.496 27.4346 111.977 28.1182C111.457 28.7972 110.76 29.1367 109.885 29.1367C109.074 29.1367 108.424 28.8701 107.937 28.3369V31.8438H106.275V21.6035H107.807L107.875 22.3555C108.363 21.763 109.026 21.4668 109.864 21.4668C110.767 21.4668 111.473 21.804 111.983 22.4785C112.498 23.1484 112.756 24.0804 112.756 25.2744V25.377ZM111.102 25.2334C111.102 24.4951 110.953 23.9095 110.657 23.4766C110.366 23.0436 109.946 22.8271 109.399 22.8271C108.72 22.8271 108.233 23.1074 107.937 23.668V26.9492C108.237 27.5234 108.729 27.8105 109.413 27.8105C109.942 27.8105 110.354 27.5986 110.65 27.1748C110.951 26.7464 111.102 26.0993 111.102 25.2334ZM115.818 23.9551H117.445C118.051 23.9551 118.58 24.0599 119.031 24.2695C119.482 24.4792 119.824 24.7731 120.057 25.1514C120.294 25.5296 120.412 25.9694 120.412 26.4707C120.412 27.2318 120.143 27.8424 119.605 28.3027C119.068 28.763 118.352 28.9954 117.459 29H114.157V21.6035H115.818V23.9551ZM115.818 25.2881V27.6738H117.438C117.844 27.6738 118.163 27.5736 118.396 27.373C118.632 27.168 118.751 26.8786 118.751 26.5049C118.751 26.1312 118.635 25.8372 118.402 25.623C118.174 25.4043 117.865 25.2926 117.473 25.2881H115.818Z" fill="black"/>
<line x1="96.5" y1="46" x2="96.5" y2="303" stroke="#C2C2C2"/>
<path d="M321.165 31.4473H319.524V29H312.969V31.4473H311.301L311.246 27.6191H312.046C312.442 27.2363 312.759 26.6803 312.996 25.9512C313.233 25.2174 313.386 24.388 313.454 23.4629L313.714 19.0469H319.989V27.6191H321.254L321.165 31.4473ZM314.001 27.6191H318.267V20.4414H315.361L315.197 23.2441C315.074 25.1172 314.675 26.5755 314.001 27.6191ZM325.649 29.1367C324.597 29.1367 323.742 28.8063 323.086 28.1455C322.434 27.4801 322.108 26.596 322.108 25.4932V25.2881C322.108 24.5498 322.25 23.8913 322.532 23.3125C322.819 22.7292 323.22 22.2757 323.735 21.9521C324.25 21.6286 324.825 21.4668 325.458 21.4668C326.465 21.4668 327.242 21.7881 327.789 22.4307C328.34 23.0732 328.616 23.9824 328.616 25.1582V25.8281H323.783C323.833 26.4388 324.036 26.9219 324.392 27.2773C324.752 27.6328 325.203 27.8105 325.745 27.8105C326.506 27.8105 327.126 27.5029 327.604 26.8877L328.5 27.7422C328.204 28.1842 327.807 28.5283 327.311 28.7744C326.818 29.016 326.265 29.1367 325.649 29.1367ZM325.451 22.7998C324.995 22.7998 324.626 22.9593 324.344 23.2783C324.066 23.5973 323.888 24.0417 323.811 24.6113H326.976V24.4883C326.939 23.9323 326.791 23.513 326.531 23.2305C326.271 22.9434 325.911 22.7998 325.451 22.7998ZM332.54 26.0742H331.699V29H330.038V21.6035H331.699V24.5566H332.431L334.475 21.6035H336.525L333.853 25.1445L336.751 29H334.591L332.54 26.0742ZM342.083 29C342.01 28.8587 341.946 28.6286 341.892 28.3096C341.363 28.861 340.716 29.1367 339.95 29.1367C339.207 29.1367 338.601 28.9248 338.132 28.501C337.662 28.0771 337.428 27.5531 337.428 26.9287C337.428 26.1403 337.719 25.5365 338.303 25.1172C338.891 24.6934 339.729 24.4814 340.818 24.4814H341.837V23.9961C341.837 23.6133 341.73 23.3079 341.516 23.0801C341.301 22.8477 340.976 22.7314 340.538 22.7314C340.16 22.7314 339.85 22.8271 339.608 23.0186C339.367 23.2054 339.246 23.4447 339.246 23.7363H337.585C337.585 23.3307 337.719 22.9525 337.988 22.6016C338.257 22.2461 338.622 21.9681 339.082 21.7676C339.547 21.5671 340.064 21.4668 340.634 21.4668C341.5 21.4668 342.19 21.6855 342.705 22.123C343.22 22.556 343.484 23.1667 343.498 23.9551V27.291C343.498 27.9564 343.591 28.4873 343.778 28.8838V29H342.083ZM340.258 27.8037C340.586 27.8037 340.894 27.724 341.181 27.5645C341.472 27.4049 341.691 27.1908 341.837 26.9219V25.5273H340.941C340.326 25.5273 339.864 25.6344 339.554 25.8486C339.244 26.0628 339.089 26.3659 339.089 26.7578C339.089 27.0768 339.194 27.332 339.403 27.5234C339.618 27.7103 339.902 27.8037 340.258 27.8037ZM348.721 22.0137C349.65 22.0137 350.396 22.3258 350.956 22.9502C351.517 23.57 351.797 24.4131 351.797 25.4795V25.5615C351.797 26.6279 351.492 27.4915 350.881 28.1523C350.275 28.8132 349.45 29.1436 348.406 29.1436C347.39 29.1436 346.57 28.8063 345.945 28.1318C345.321 27.4574 345.009 26.5368 345.009 25.3701V24.8916C345.009 23.2965 345.291 22.0342 345.856 21.1045C346.422 20.1748 347.265 19.5938 348.386 19.3613C349.015 19.2337 349.42 19.0993 349.603 18.958C349.789 18.8122 349.883 18.6162 349.883 18.3701H351.223C351.223 18.8304 351.147 19.2041 350.997 19.4912C350.847 19.7783 350.617 20.013 350.307 20.1953C349.997 20.373 349.464 20.5417 348.707 20.7012C348.014 20.847 347.486 21.1068 347.121 21.4805C346.761 21.8542 346.52 22.3714 346.396 23.0322C347.057 22.3532 347.832 22.0137 348.721 22.0137ZM348.393 23.3467C347.855 23.3467 347.433 23.529 347.128 23.8936C346.823 24.2536 346.67 24.8096 346.67 25.5615C346.67 26.2725 346.82 26.8262 347.121 27.2227C347.422 27.6191 347.85 27.8174 348.406 27.8174C348.958 27.8174 349.384 27.6191 349.685 27.2227C349.99 26.8216 350.143 26.2201 350.143 25.418C350.143 24.7799 349.99 24.2764 349.685 23.9072C349.384 23.5335 348.953 23.3467 348.393 23.3467ZM359.453 25.377C359.453 26.5208 359.193 27.4346 358.674 28.1182C358.154 28.7972 357.457 29.1367 356.582 29.1367C355.771 29.1367 355.121 28.8701 354.634 28.3369V31.8438H352.973V21.6035H354.504L354.572 22.3555C355.06 21.763 355.723 21.4668 356.562 21.4668C357.464 21.4668 358.17 21.804 358.681 22.4785C359.196 23.1484 359.453 24.0804 359.453 25.2744V25.377ZM357.799 25.2334C357.799 24.4951 357.651 23.9095 357.354 23.4766C357.063 23.0436 356.644 22.8271 356.097 22.8271C355.418 22.8271 354.93 23.1074 354.634 23.668V26.9492C354.935 27.5234 355.427 27.8105 356.11 27.8105C356.639 27.8105 357.051 27.5986 357.348 27.1748C357.648 26.7464 357.799 26.0993 357.799 25.2334ZM362.516 23.9551H364.143C364.749 23.9551 365.277 24.0599 365.729 24.2695C366.18 24.4792 366.521 24.7731 366.754 25.1514C366.991 25.5296 367.109 25.9694 367.109 26.4707C367.109 27.2318 366.84 27.8424 366.303 28.3027C365.765 28.763 365.049 28.9954 364.156 29H360.854V21.6035H362.516V23.9551ZM362.516 25.2881V27.6738H364.136C364.541 27.6738 364.86 27.5736 365.093 27.373C365.33 27.168 365.448 26.8786 365.448 26.5049C365.448 26.1312 365.332 25.8372 365.1 25.623C364.872 25.4043 364.562 25.2926 364.17 25.2881H362.516Z" fill="black"/>
<line x1="339.5" y1="46" x2="339.5" y2="303" stroke="#C2C2C2"/>
<path d="M563.92 29V25.2812H561.992L560.071 29H558.219L560.44 24.7686C559.283 24.2217 558.704 23.3262 558.704 22.082C558.704 21.1296 559.016 20.389 559.641 19.8604C560.27 19.3271 561.145 19.056 562.266 19.0469H565.649V29H563.92ZM560.427 22.1572C560.427 22.7178 560.584 23.1553 560.898 23.4697C561.213 23.7842 561.685 23.9414 562.313 23.9414H563.92V20.4414H562.313C561.675 20.4414 561.201 20.5941 560.892 20.8994C560.582 21.2048 560.427 21.624 560.427 22.1572ZM573.812 29H572.15V26.0127H569.272V29H567.611V21.6035H569.272V24.6865H572.15V21.6035H573.812V29ZM575.712 29V21.6035H578.713C579.725 21.6035 580.495 21.7812 581.023 22.1367C581.552 22.4876 581.816 22.9935 581.816 23.6543C581.816 23.9961 581.709 24.3037 581.495 24.5771C581.285 24.846 580.973 25.0534 580.559 25.1992C581.042 25.2995 581.424 25.5023 581.707 25.8076C581.99 26.113 582.131 26.473 582.131 26.8877C582.131 27.5758 581.876 28.0999 581.365 28.46C580.859 28.82 580.13 29 579.178 29H575.712ZM577.373 25.8486V27.6875H579.191C580.044 27.6875 580.47 27.3822 580.47 26.7715C580.47 26.1562 580.037 25.8486 579.171 25.8486H577.373ZM577.373 24.6592H578.74C579.684 24.6592 580.155 24.3812 580.155 23.8252C580.155 23.2419 579.709 22.9411 578.815 22.9229H577.373V24.6592ZM587.989 29C587.916 28.8587 587.853 28.6286 587.798 28.3096C587.269 28.861 586.622 29.1367 585.856 29.1367C585.114 29.1367 584.507 28.9248 584.038 28.501C583.569 28.0771 583.334 27.5531 583.334 26.9287C583.334 26.1403 583.626 25.5365 584.209 25.1172C584.797 24.6934 585.635 24.4814 586.725 24.4814H587.743V23.9961C587.743 23.6133 587.636 23.3079 587.422 23.0801C587.208 22.8477 586.882 22.7314 586.444 22.7314C586.066 22.7314 585.756 22.8271 585.515 23.0186C585.273 23.2054 585.152 23.4447 585.152 23.7363H583.491C583.491 23.3307 583.626 22.9525 583.895 22.6016C584.163 22.2461 584.528 21.9681 584.988 21.7676C585.453 21.5671 585.97 21.4668 586.54 21.4668C587.406 21.4668 588.096 21.6855 588.611 22.123C589.126 22.556 589.391 23.1667 589.404 23.9551V27.291C589.404 27.9564 589.498 28.4873 589.685 28.8838V29H587.989ZM586.164 27.8037C586.492 27.8037 586.8 27.724 587.087 27.5645C587.379 27.4049 587.597 27.1908 587.743 26.9219V25.5273H586.848C586.232 25.5273 585.77 25.6344 585.46 25.8486C585.15 26.0628 584.995 26.3659 584.995 26.7578C584.995 27.0768 585.1 27.332 585.31 27.5234C585.524 27.7103 585.809 27.8037 586.164 27.8037ZM597.621 25.377C597.621 26.5208 597.361 27.4346 596.842 28.1182C596.322 28.7972 595.625 29.1367 594.75 29.1367C593.939 29.1367 593.289 28.8701 592.802 28.3369V31.8438H591.141V21.6035H592.672L592.74 22.3555C593.228 21.763 593.891 21.4668 594.729 21.4668C595.632 21.4668 596.338 21.804 596.849 22.4785C597.364 23.1484 597.621 24.0804 597.621 25.2744V25.377ZM595.967 25.2334C595.967 24.4951 595.819 23.9095 595.522 23.4766C595.231 23.0436 594.812 22.8271 594.265 22.8271C593.586 22.8271 593.098 23.1074 592.802 23.668V26.9492C593.103 27.5234 593.595 27.8105 594.278 27.8105C594.807 27.8105 595.219 27.5986 595.516 27.1748C595.816 26.7464 595.967 26.0993 595.967 25.2334ZM600.684 23.9551H602.311C602.917 23.9551 603.445 24.0599 603.896 24.2695C604.348 24.4792 604.689 24.7731 604.922 25.1514C605.159 25.5296 605.277 25.9694 605.277 26.4707C605.277 27.2318 605.008 27.8424 604.471 28.3027C603.933 28.763 603.217 28.9954 602.324 29H599.022V21.6035H600.684V23.9551ZM600.684 25.2881V27.6738H602.304C602.709 27.6738 603.028 27.5736 603.261 27.373C603.498 27.168 603.616 26.8786 603.616 26.5049C603.616 26.1312 603.5 25.8372 603.268 25.623C603.04 25.4043 602.73 25.2926 602.338 25.2881H600.684Z" fill="black"/>
<line x1="582.5" y1="46" x2="582.5" y2="303" stroke="#C2C2C2"/>
<rect x="441" y="140" width="199" height="25" rx="5" fill="#FE2C55"/>
<rect x="55" y="251" width="569" height="25" rx="5" fill="#1DA1F2"/>
<rect x="192" y="165" width="144" height="25" rx="5" fill="#010101"/>
<rect x="201" y="179" width="10" height="2" rx="1" fill="white" fill-opacity="0.3"/>
<rect x="201" y="175" width="10" height="2" rx="1" fill="white" fill-opacity="0.3"/>
<rect x="64" y="265" width="10" height="2" rx="1" fill="white" fill-opacity="0.3"/>
<rect x="64" y="261" width="10" height="2" rx="1" fill="white" fill-opacity="0.3"/>
<rect y="115" width="144" height="25" rx="5" fill="#FEB42C"/>
<circle cx="264.5" cy="8.5" r="8.5" fill="#22CE53" fill-opacity="0.25"/>
<circle cx="264.5" cy="8.5" r="3.5" fill="#22CE53"/>
<line x1="264.5" y1="22.5" x2="264.5" y2="315.5" stroke="url(#paint0_linear_199)" stroke-linecap="round" stroke-dasharray="5 5"/>
<path d="M28.4858 126.005L30.1294 123.18H31.6978L29.3345 127.058L31.7515 131H30.167L28.4858 128.132L26.7993 131H25.2202L27.6426 127.058L25.2739 123.18H26.8423L28.4858 126.005ZM34.7163 126.128C34.4119 126.128 34.1541 126.223 33.9429 126.413C33.7316 126.599 33.626 126.834 33.626 127.117H32.396C32.396 126.759 32.4998 126.424 32.7075 126.112C32.9152 125.797 33.1999 125.547 33.5615 125.36C33.9232 125.174 34.3081 125.081 34.7163 125.081C35.5041 125.081 36.1361 125.351 36.6123 125.892C37.0921 126.433 37.332 127.154 37.332 128.057V128.191C37.332 128.746 37.2228 129.249 37.0044 129.7C36.7896 130.151 36.4852 130.499 36.0913 130.742C35.6974 130.986 35.2409 131.107 34.7217 131.107C34.2812 131.107 33.882 131.016 33.5239 130.833C33.1659 130.647 32.8883 130.388 32.6914 130.055C32.4945 129.722 32.396 129.346 32.396 128.927H33.626C33.626 129.26 33.7316 129.534 33.9429 129.749C34.1541 129.96 34.4137 130.065 34.7217 130.065C35.0869 130.065 35.3823 129.929 35.6079 129.657C35.8335 129.382 35.9678 128.998 36.0107 128.508H34.1846V127.605H36.0054C35.9552 127.133 35.8174 126.769 35.5918 126.515C35.3662 126.257 35.0744 126.128 34.7163 126.128ZM43.3154 125.188V131H42.0103V126.241H40.3667L40.2593 128.266C40.1912 129.24 40.0033 129.94 39.6953 130.366C39.391 130.789 38.9237 131 38.2935 131H37.8906L37.8853 129.915L38.1538 129.888C38.4403 129.849 38.6479 129.675 38.7769 129.367C38.9093 129.056 38.9935 128.49 39.0293 127.67L39.1367 125.188H43.3154ZM49.6426 125.188V131H48.3374V126.241H46.6938L46.5864 128.266C46.5184 129.24 46.3304 129.94 46.0225 130.366C45.7181 130.789 45.2508 131 44.6206 131H44.2178L44.2124 129.915L44.481 129.888C44.7674 129.849 44.9751 129.675 45.104 129.367C45.2365 129.056 45.3206 128.49 45.3564 127.67L45.4639 125.188H49.6426ZM50.7866 128.041C50.7866 127.471 50.8994 126.959 51.125 126.504C51.3506 126.046 51.6675 125.695 52.0757 125.452C52.4839 125.205 52.953 125.081 53.4829 125.081C54.2671 125.081 54.9027 125.333 55.3896 125.838C55.8802 126.343 56.1452 127.013 56.1846 127.847L56.1899 128.153C56.1899 128.726 56.0789 129.238 55.8569 129.689C55.6385 130.141 55.3234 130.49 54.9116 130.737C54.5034 130.984 54.0308 131.107 53.4937 131.107C52.6737 131.107 52.0166 130.835 51.5225 130.291C51.0319 129.743 50.7866 129.014 50.7866 128.105V128.041ZM52.0918 128.153C52.0918 128.751 52.2153 129.22 52.4624 129.561C52.7095 129.897 53.0532 130.065 53.4937 130.065C53.9341 130.065 54.276 129.894 54.5195 129.55C54.7666 129.206 54.8901 128.703 54.8901 128.041C54.8901 127.453 54.763 126.988 54.5088 126.644C54.2581 126.3 53.9162 126.128 53.4829 126.128C53.0568 126.128 52.7184 126.299 52.4678 126.639C52.2171 126.975 52.0918 127.48 52.0918 128.153ZM59.2407 129.131L60.4224 125.188H61.8135L59.5039 131.881C59.1494 132.858 58.5479 133.347 57.6992 133.347C57.5094 133.347 57.3 133.315 57.0708 133.25V132.241L57.3179 132.257C57.6473 132.257 57.8944 132.196 58.0591 132.074C58.2274 131.956 58.3599 131.756 58.4565 131.473L58.6445 130.973L56.6035 125.188H58.0107L59.2407 129.131ZM66.1963 125.188H67.4961V131H66.1963V127.122L63.9189 131H62.6191V125.188H63.9189V129.066L66.1963 125.188ZM73.8071 131H72.502V128.653H70.2407V131H68.9355V125.188H70.2407V127.611H72.502V125.188H73.8071V131ZM80.4727 128.202H77.6528V127.149H80.4727V128.202ZM88.7925 129.179H85.7632L85.1294 131H83.7168L86.6709 123.18H87.8901L90.8496 131H89.4316L88.7925 129.179ZM86.1445 128.083H88.4111L87.2778 124.839L86.1445 128.083ZM93.4224 128.701H92.7617V131H91.4565V125.188H92.7617V127.509H93.3364L94.9424 125.188H96.5537L94.4536 127.971L96.731 131H95.0337L93.4224 128.701ZM97.499 125.188H98.8042V129.958H101.071V125.188H102.376V129.958H103.166L103.058 132.724H101.871V131H97.499V125.188ZM107.715 125.188H109.015V131H107.715V127.122L105.438 131H104.138V125.188H105.438V129.066L107.715 125.188ZM114.031 125.188H115.331V131H114.031V127.122L111.754 131H110.454V125.188H111.754V129.066L114.031 125.188Z" fill="white"/>
<path d="M224.778 173.18V181H223.425V177.922C222.845 178.069 222.24 178.143 221.609 178.143C220.675 178.143 219.968 177.937 219.488 177.525C219.008 177.113 218.766 176.492 218.763 175.661V173.18H220.116V175.672C220.12 176.17 220.234 176.524 220.46 176.735C220.686 176.947 221.069 177.052 221.609 177.052C222.232 177.052 222.838 176.977 223.425 176.827V173.18H224.778ZM228.844 181.107C228.017 181.107 227.346 180.848 226.83 180.329C226.318 179.806 226.062 179.111 226.062 178.245V178.083C226.062 177.503 226.173 176.986 226.395 176.531C226.621 176.073 226.936 175.717 227.34 175.462C227.745 175.208 228.196 175.081 228.694 175.081C229.485 175.081 230.096 175.333 230.525 175.838C230.959 176.343 231.175 177.058 231.175 177.981V178.508H227.378C227.417 178.988 227.577 179.367 227.856 179.646C228.139 179.926 228.493 180.065 228.919 180.065C229.517 180.065 230.004 179.824 230.38 179.34L231.084 180.012C230.851 180.359 230.54 180.629 230.149 180.823C229.763 181.013 229.328 181.107 228.844 181.107ZM228.688 176.128C228.33 176.128 228.04 176.254 227.818 176.504C227.6 176.755 227.46 177.104 227.399 177.552H229.886V177.455C229.858 177.018 229.741 176.689 229.537 176.467C229.333 176.241 229.05 176.128 228.688 176.128ZM237.282 178.153C237.282 179.052 237.078 179.77 236.67 180.307C236.262 180.841 235.714 181.107 235.026 181.107C234.389 181.107 233.879 180.898 233.496 180.479V183.234H232.19V175.188H233.394L233.447 175.779C233.83 175.314 234.351 175.081 235.01 175.081C235.719 175.081 236.274 175.346 236.675 175.876C237.08 176.402 237.282 177.135 237.282 178.073V178.153ZM235.982 178.041C235.982 177.46 235.866 177 235.633 176.66C235.404 176.32 235.075 176.15 234.645 176.15C234.111 176.15 233.728 176.37 233.496 176.811V179.389C233.732 179.84 234.119 180.065 234.656 180.065C235.071 180.065 235.395 179.899 235.628 179.566C235.864 179.229 235.982 178.721 235.982 178.041ZM243.314 181H242.009V178.653H239.748V181H238.442V175.188H239.748V177.611H242.009V175.188H243.314V181ZM248.18 181C248.123 180.889 248.073 180.708 248.03 180.458C247.614 180.891 247.106 181.107 246.504 181.107C245.921 181.107 245.444 180.941 245.076 180.608C244.707 180.275 244.522 179.863 244.522 179.373C244.522 178.753 244.752 178.279 245.21 177.949C245.672 177.616 246.331 177.45 247.187 177.45H247.987V177.068C247.987 176.768 247.903 176.528 247.734 176.349C247.566 176.166 247.31 176.075 246.966 176.075C246.669 176.075 246.426 176.15 246.236 176.3C246.046 176.447 245.951 176.635 245.951 176.864H244.646C244.646 176.546 244.752 176.248 244.963 175.973C245.174 175.693 245.461 175.475 245.822 175.317C246.188 175.16 246.594 175.081 247.042 175.081C247.722 175.081 248.264 175.253 248.669 175.597C249.074 175.937 249.281 176.417 249.292 177.036V179.657C249.292 180.18 249.365 180.597 249.512 180.909V181H248.18ZM246.746 180.06C247.004 180.06 247.246 179.997 247.471 179.872C247.7 179.747 247.872 179.578 247.987 179.367V178.271H247.283C246.8 178.271 246.436 178.356 246.193 178.524C245.949 178.692 245.828 178.93 245.828 179.238C245.828 179.489 245.91 179.689 246.075 179.84C246.243 179.987 246.467 180.06 246.746 180.06ZM255.313 175.188V181H254.013V178.868H252.794L251.553 181H250.2L251.569 178.653C251.211 178.502 250.936 178.288 250.742 178.008C250.552 177.729 250.458 177.409 250.458 177.047C250.458 176.506 250.665 176.064 251.081 175.72C251.5 175.373 252.063 175.196 252.772 175.188H255.313ZM251.763 177.079C251.763 177.323 251.852 177.521 252.031 177.675C252.214 177.826 252.447 177.901 252.729 177.901H254.013V176.225H252.81C252.491 176.225 252.237 176.306 252.047 176.467C251.858 176.628 251.763 176.832 251.763 177.079ZM264.428 181H263.123V176.241H260.856V181H259.551V175.188H264.428V181ZM270.47 175.188V181H269.17V178.868H267.951L266.71 181H265.357L266.727 178.653C266.368 178.502 266.093 178.288 265.899 178.008C265.71 177.729 265.615 177.409 265.615 177.047C265.615 176.506 265.822 176.064 266.238 175.72C266.657 175.373 267.221 175.196 267.93 175.188H270.47ZM266.92 177.079C266.92 177.323 267.009 177.521 267.188 177.675C267.371 177.826 267.604 177.901 267.887 177.901H269.17V176.225H267.967C267.649 176.225 267.394 176.306 267.205 176.467C267.015 176.628 266.92 176.832 266.92 177.079ZM276.491 176.225H274.606V181H273.301V176.225H271.437V175.188H276.491V176.225ZM282.287 181H280.981V178.653H278.72V181H277.415V175.188H278.72V177.611H280.981V175.188H282.287V181ZM287.309 175.188H288.608V181H287.309V177.122L285.031 181H283.731V175.188H285.031V179.066L287.309 175.188ZM290.048 175.188H291.353V179.958H293.62V175.188H294.925V179.958H295.714L295.607 182.724H294.42V181H290.048V175.188ZM300.108 181C300.051 180.889 300 180.708 299.958 180.458C299.542 180.891 299.034 181.107 298.432 181.107C297.848 181.107 297.372 180.941 297.003 180.608C296.635 180.275 296.45 179.863 296.45 179.373C296.45 178.753 296.679 178.279 297.138 177.949C297.6 177.616 298.258 177.45 299.114 177.45H299.915V177.068C299.915 176.768 299.83 176.528 299.662 176.349C299.494 176.166 299.238 176.075 298.894 176.075C298.597 176.075 298.353 176.15 298.164 176.3C297.974 176.447 297.879 176.635 297.879 176.864H296.574C296.574 176.546 296.679 176.248 296.891 175.973C297.102 175.693 297.388 175.475 297.75 175.317C298.115 175.16 298.522 175.081 298.969 175.081C299.65 175.081 300.192 175.253 300.597 175.597C301.001 175.937 301.209 176.417 301.22 177.036V179.657C301.22 180.18 301.293 180.597 301.44 180.909V181H300.108ZM298.674 180.06C298.932 180.06 299.173 179.997 299.399 179.872C299.628 179.747 299.8 179.578 299.915 179.367V178.271H299.211C298.728 178.271 298.364 178.356 298.121 178.524C297.877 178.692 297.755 178.93 297.755 179.238C297.755 179.489 297.838 179.689 298.002 179.84C298.171 179.987 298.395 180.06 298.674 180.06Z" fill="white"/>
<rect x="451" y="154" width="10" height="2" rx="1" fill="white" fill-opacity="0.3"/>
<rect x="451" y="150" width="10" height="2" rx="1" fill="white" fill-opacity="0.3"/>
<path d="M475.004 156H473.65V152.525H470.154V156H468.795V148.18H470.154V151.435H473.65V148.18H475.004V156ZM476.245 153.041C476.245 152.471 476.357 151.959 476.583 151.504C476.809 151.046 477.125 150.695 477.534 150.452C477.942 150.205 478.411 150.081 478.941 150.081C479.725 150.081 480.361 150.333 480.848 150.838C481.338 151.343 481.603 152.013 481.643 152.847L481.648 153.153C481.648 153.726 481.537 154.238 481.315 154.689C481.097 155.141 480.781 155.49 480.37 155.737C479.961 155.984 479.489 156.107 478.952 156.107C478.132 156.107 477.475 155.835 476.98 155.291C476.49 154.743 476.245 154.014 476.245 153.105V153.041ZM477.55 153.153C477.55 153.751 477.673 154.22 477.92 154.561C478.167 154.897 478.511 155.065 478.952 155.065C479.392 155.065 479.734 154.894 479.978 154.55C480.225 154.206 480.348 153.703 480.348 153.041C480.348 152.453 480.221 151.988 479.967 151.644C479.716 151.3 479.374 151.128 478.941 151.128C478.515 151.128 478.176 151.299 477.926 151.639C477.675 151.975 477.55 152.48 477.55 153.153ZM482.851 156V150.188H485.209C486.004 150.188 486.609 150.328 487.024 150.607C487.44 150.883 487.647 151.281 487.647 151.8C487.647 152.068 487.563 152.31 487.395 152.525C487.23 152.736 486.985 152.899 486.659 153.014C487.039 153.092 487.34 153.252 487.562 153.492C487.784 153.732 487.895 154.014 487.895 154.34C487.895 154.881 487.694 155.293 487.293 155.576C486.896 155.859 486.323 156 485.574 156H482.851ZM484.156 153.524V154.969H485.585C486.255 154.969 486.589 154.729 486.589 154.249C486.589 153.766 486.249 153.524 485.569 153.524H484.156ZM484.156 152.589H485.23C485.972 152.589 486.342 152.371 486.342 151.934C486.342 151.476 485.991 151.239 485.29 151.225H484.156V152.589ZM488.781 153.041C488.781 152.471 488.894 151.959 489.119 151.504C489.345 151.046 489.662 150.695 490.07 150.452C490.478 150.205 490.947 150.081 491.477 150.081C492.261 150.081 492.897 150.333 493.384 150.838C493.874 151.343 494.139 152.013 494.179 152.847L494.184 153.153C494.184 153.726 494.073 154.238 493.851 154.689C493.633 155.141 493.318 155.49 492.906 155.737C492.498 155.984 492.025 156.107 491.488 156.107C490.668 156.107 490.011 155.835 489.517 155.291C489.026 154.743 488.781 154.014 488.781 153.105V153.041ZM490.086 153.153C490.086 153.751 490.209 154.22 490.457 154.561C490.704 154.897 491.047 155.065 491.488 155.065C491.928 155.065 492.27 154.894 492.514 154.55C492.761 154.206 492.884 153.703 492.884 153.041C492.884 152.453 492.757 151.988 492.503 151.644C492.252 151.3 491.91 151.128 491.477 151.128C491.051 151.128 490.713 151.299 490.462 151.639C490.211 151.975 490.086 152.48 490.086 153.153ZM499.158 151.241H496.633V156H495.333V150.188H499.158V151.241ZM499.544 153.041C499.544 152.471 499.657 151.959 499.883 151.504C500.108 151.046 500.425 150.695 500.833 150.452C501.242 150.205 501.711 150.081 502.241 150.081C503.025 150.081 503.66 150.333 504.147 150.838C504.638 151.343 504.903 152.013 504.942 152.847L504.948 153.153C504.948 153.726 504.837 154.238 504.615 154.689C504.396 155.141 504.081 155.49 503.669 155.737C503.261 155.984 502.789 156.107 502.251 156.107C501.431 156.107 500.774 155.835 500.28 155.291C499.79 154.743 499.544 154.014 499.544 153.105V153.041ZM500.85 153.153C500.85 153.751 500.973 154.22 501.22 154.561C501.467 154.897 501.811 155.065 502.251 155.065C502.692 155.065 503.034 154.894 503.277 154.55C503.524 154.206 503.648 153.703 503.648 153.041C503.648 152.453 503.521 151.988 503.267 151.644C503.016 151.3 502.674 151.128 502.241 151.128C501.815 151.128 501.476 151.299 501.226 151.639C500.975 151.975 500.85 152.48 500.85 153.153ZM505.689 154.958C506.051 154.553 506.292 154.17 506.414 153.809C506.539 153.443 506.615 152.978 506.64 152.412L506.715 150.188H510.749V154.958H511.554V157.729H510.254V156H506.527V157.729H505.206L505.211 154.958H505.689ZM507.22 154.958H509.449V151.311H507.982L507.945 152.423C507.895 153.49 507.653 154.335 507.22 154.958ZM517.312 156H516.007V153.653H513.746V156H512.44V150.188H513.746V152.611H516.007V150.188H517.312V156ZM522.334 150.188H523.634V156H522.334V152.122L520.057 156H518.757V150.188H520.057V154.066L522.334 150.188ZM527.582 156.107C526.754 156.107 526.083 155.848 525.567 155.329C525.055 154.806 524.799 154.111 524.799 153.245V153.083C524.799 152.503 524.91 151.986 525.132 151.531C525.358 151.073 525.673 150.717 526.078 150.462C526.482 150.208 526.933 150.081 527.431 150.081C528.222 150.081 528.833 150.333 529.263 150.838C529.696 151.343 529.913 152.058 529.913 152.981V153.508H526.115C526.155 153.988 526.314 154.367 526.593 154.646C526.876 154.926 527.231 155.065 527.657 155.065C528.255 155.065 528.742 154.824 529.118 154.34L529.821 155.012C529.589 155.359 529.277 155.629 528.887 155.823C528.5 156.013 528.065 156.107 527.582 156.107ZM527.426 151.128C527.068 151.128 526.778 151.254 526.556 151.504C526.337 151.755 526.198 152.104 526.137 152.552H528.624V152.455C528.595 152.018 528.479 151.689 528.274 151.467C528.07 151.241 527.787 151.128 527.426 151.128ZM538.598 156H537.292V151.241H535.026V156H533.721V150.188H538.598V156ZM545.075 153.153C545.075 154.052 544.871 154.77 544.463 155.307C544.055 155.841 543.507 156.107 542.819 156.107C542.182 156.107 541.672 155.898 541.289 155.479V158.234H539.983V150.188H541.187L541.24 150.779C541.623 150.314 542.144 150.081 542.803 150.081C543.512 150.081 544.067 150.346 544.468 150.876C544.873 151.402 545.075 152.135 545.075 153.073V153.153ZM543.775 153.041C543.775 152.46 543.659 152 543.426 151.66C543.197 151.32 542.868 151.15 542.438 151.15C541.904 151.15 541.521 151.37 541.289 151.811V154.389C541.525 154.84 541.912 155.065 542.449 155.065C542.864 155.065 543.188 154.899 543.421 154.566C543.657 154.229 543.775 153.721 543.775 153.041ZM548.744 156.107C547.917 156.107 547.245 155.848 546.729 155.329C546.217 154.806 545.961 154.111 545.961 153.245V153.083C545.961 152.503 546.072 151.986 546.294 151.531C546.52 151.073 546.835 150.717 547.24 150.462C547.644 150.208 548.096 150.081 548.593 150.081C549.385 150.081 549.995 150.333 550.425 150.838C550.858 151.343 551.075 152.058 551.075 152.981V153.508H547.277C547.317 153.988 547.476 154.367 547.755 154.646C548.038 154.926 548.393 155.065 548.819 155.065C549.417 155.065 549.904 154.824 550.28 154.34L550.983 155.012C550.751 155.359 550.439 155.629 550.049 155.823C549.662 156.013 549.227 156.107 548.744 156.107ZM548.588 151.128C548.23 151.128 547.94 151.254 547.718 151.504C547.499 151.755 547.36 152.104 547.299 152.552H549.786V152.455C549.757 152.018 549.641 151.689 549.437 151.467C549.232 151.241 548.95 151.128 548.588 151.128ZM552.117 154.958C552.478 154.553 552.72 154.17 552.842 153.809C552.967 153.443 553.042 152.978 553.067 152.412L553.143 150.188H557.176V154.958H557.982V157.729H556.682V156H552.955V157.729H551.633L551.639 154.958H552.117ZM553.647 154.958H555.876V151.311H554.41L554.373 152.423C554.322 153.49 554.081 154.335 553.647 154.958ZM563.853 150.188V156H562.547V151.241H560.904L560.796 153.266C560.728 154.24 560.54 154.94 560.232 155.366C559.928 155.789 559.461 156 558.831 156H558.428L558.422 154.915L558.691 154.888C558.977 154.849 559.185 154.675 559.314 154.367C559.446 154.056 559.531 153.49 559.566 152.67L559.674 150.188H563.853ZM564.997 153.041C564.997 152.471 565.109 151.959 565.335 151.504C565.561 151.046 565.877 150.695 566.286 150.452C566.694 150.205 567.163 150.081 567.693 150.081C568.477 150.081 569.113 150.333 569.6 150.838C570.09 151.343 570.355 152.013 570.395 152.847L570.4 153.153C570.4 153.726 570.289 154.238 570.067 154.689C569.848 155.141 569.533 155.49 569.122 155.737C568.713 155.984 568.241 156.107 567.704 156.107C566.884 156.107 566.227 155.835 565.732 155.291C565.242 154.743 564.997 154.014 564.997 153.105V153.041ZM566.302 153.153C566.302 153.751 566.425 154.22 566.672 154.561C566.919 154.897 567.263 155.065 567.704 155.065C568.144 155.065 568.486 154.894 568.729 154.55C568.977 154.206 569.1 153.703 569.1 153.041C569.1 152.453 568.973 151.988 568.719 151.644C568.468 151.3 568.126 151.128 567.693 151.128C567.267 151.128 566.928 151.299 566.678 151.639C566.427 151.975 566.302 152.48 566.302 153.153ZM576.501 153.664H575.809V156H574.503V153.664H573.816L572.479 156H570.878L572.806 152.976L570.98 150.188H572.575L573.891 152.471H574.503V150.188H575.809V152.471H576.426L577.748 150.188H579.343L577.522 152.96L579.461 156H577.839L576.501 153.664ZM582.721 156.107C581.894 156.107 581.223 155.848 580.707 155.329C580.195 154.806 579.939 154.111 579.939 153.245V153.083C579.939 152.503 580.05 151.986 580.272 151.531C580.498 151.073 580.813 150.717 581.217 150.462C581.622 150.208 582.073 150.081 582.571 150.081C583.362 150.081 583.973 150.333 584.402 150.838C584.836 151.343 585.052 152.058 585.052 152.981V153.508H581.255C581.294 153.988 581.454 154.367 581.733 154.646C582.016 154.926 582.37 155.065 582.796 155.065C583.394 155.065 583.881 154.824 584.257 154.34L584.961 155.012C584.728 155.359 584.417 155.629 584.026 155.823C583.64 156.013 583.205 156.107 582.721 156.107ZM582.565 151.128C582.207 151.128 581.917 151.254 581.695 151.504C581.477 151.755 581.337 152.104 581.276 152.552H583.763V152.455C583.735 152.018 583.618 151.689 583.414 151.467C583.21 151.241 582.927 151.128 582.565 151.128ZM590.993 156H589.688V153.653H587.426V156H586.121V150.188H587.426V152.611H589.688V150.188H590.993V156ZM596.015 150.188H597.314V156H596.015V152.122L593.737 156H592.438V150.188H593.737V154.066L596.015 150.188ZM603.357 150.188V156H602.057V153.868H600.838L599.597 156H598.244L599.613 153.653C599.255 153.502 598.979 153.288 598.786 153.008C598.596 152.729 598.501 152.409 598.501 152.047C598.501 151.506 598.709 151.064 599.125 150.72C599.543 150.373 600.107 150.196 600.816 150.188H603.357ZM599.807 152.079C599.807 152.323 599.896 152.521 600.075 152.675C600.258 152.826 600.491 152.901 600.773 152.901H602.057V151.225H600.854C600.535 151.225 600.281 151.306 600.091 151.467C599.902 151.628 599.807 151.832 599.807 152.079Z" fill="white"/>
<path d="M88.0039 267H86.6504V263.525H83.1538V267H81.7949V259.18H83.1538V262.435H86.6504V259.18H88.0039V267ZM92.9614 267C92.9041 266.889 92.854 266.708 92.811 266.458C92.3957 266.891 91.8872 267.107 91.2856 267.107C90.702 267.107 90.2257 266.941 89.8569 266.608C89.4881 266.275 89.3037 265.863 89.3037 265.373C89.3037 264.753 89.5329 264.279 89.9912 263.949C90.4531 263.616 91.112 263.45 91.9678 263.45H92.7681V263.068C92.7681 262.768 92.6839 262.528 92.5156 262.349C92.3473 262.166 92.0913 262.075 91.7476 262.075C91.4504 262.075 91.2069 262.15 91.0171 262.3C90.8273 262.447 90.7324 262.635 90.7324 262.864H89.4272C89.4272 262.546 89.5329 262.248 89.7441 261.973C89.9554 261.693 90.2419 261.475 90.6035 261.317C90.9688 261.16 91.3752 261.081 91.8228 261.081C92.5031 261.081 93.0456 261.253 93.4502 261.597C93.8548 261.937 94.0625 262.417 94.0732 263.036V265.657C94.0732 266.18 94.1466 266.597 94.2935 266.909V267H92.9614ZM91.5273 266.06C91.7852 266.06 92.0269 265.997 92.2524 265.872C92.4816 265.747 92.6535 265.578 92.7681 265.367V264.271H92.0645C91.5811 264.271 91.2176 264.356 90.9741 264.524C90.7306 264.692 90.6089 264.93 90.6089 265.238C90.6089 265.489 90.6912 265.689 90.856 265.84C91.0243 265.987 91.248 266.06 91.5273 266.06ZM95.5396 267V261.188H97.8975C98.6924 261.188 99.2975 261.328 99.7129 261.607C100.128 261.883 100.336 262.281 100.336 262.8C100.336 263.068 100.252 263.31 100.083 263.525C99.9188 263.736 99.6735 263.899 99.3477 264.014C99.7272 264.092 100.028 264.252 100.25 264.492C100.472 264.732 100.583 265.014 100.583 265.34C100.583 265.881 100.382 266.293 99.9814 266.576C99.584 266.859 99.0111 267 98.2627 267H95.5396ZM96.8447 264.524V265.969H98.2734C98.943 265.969 99.2778 265.729 99.2778 265.249C99.2778 264.766 98.9377 264.524 98.2573 264.524H96.8447ZM96.8447 263.589H97.9189C98.6602 263.589 99.0308 263.371 99.0308 262.934C99.0308 262.476 98.6799 262.239 97.978 262.225H96.8447V263.589ZM105.342 261.188H106.642V267H105.342V263.122L103.064 267H101.765V261.188H103.064V265.066L105.342 261.188ZM111.9 262.241H109.375V267H108.076V261.188H111.9V262.241ZM116.111 267C116.054 266.889 116.003 266.708 115.96 266.458C115.545 266.891 115.037 267.107 114.435 267.107C113.851 267.107 113.375 266.941 113.006 266.608C112.638 266.275 112.453 265.863 112.453 265.373C112.453 264.753 112.682 264.279 113.141 263.949C113.603 263.616 114.261 263.45 115.117 263.45H115.917V263.068C115.917 262.768 115.833 262.528 115.665 262.349C115.497 262.166 115.241 262.075 114.897 262.075C114.6 262.075 114.356 262.15 114.167 262.3C113.977 262.447 113.882 262.635 113.882 262.864H112.577C112.577 262.546 112.682 262.248 112.894 261.973C113.105 261.693 113.391 261.475 113.753 261.317C114.118 261.16 114.525 261.081 114.972 261.081C115.653 261.081 116.195 261.253 116.6 261.597C117.004 261.937 117.212 262.417 117.223 263.036V265.657C117.223 266.18 117.296 266.597 117.443 266.909V267H116.111ZM114.677 266.06C114.935 266.06 115.176 265.997 115.402 265.872C115.631 265.747 115.803 265.578 115.917 265.367V264.271H115.214C114.73 264.271 114.367 264.356 114.124 264.524C113.88 264.692 113.758 264.93 113.758 265.238C113.758 265.489 113.841 265.689 114.005 265.84C114.174 265.987 114.397 266.06 114.677 266.06ZM118.641 261.188H119.946V265.958H122.212V261.188H123.518V265.958H124.307L124.2 268.724H123.013V267H118.641V261.188ZM128.856 261.188H130.156V267H128.856V263.122L126.579 267H125.279V261.188H126.579V265.066L128.856 261.188ZM136.199 261.188V267H134.899V264.868H133.68L132.439 267H131.085L132.455 264.653C132.097 264.502 131.821 264.288 131.628 264.008C131.438 263.729 131.343 263.409 131.343 263.047C131.343 262.506 131.551 262.064 131.966 261.72C132.385 261.373 132.949 261.196 133.658 261.188H136.199ZM132.648 263.079C132.648 263.323 132.738 263.521 132.917 263.675C133.1 263.826 133.332 263.901 133.615 263.901H134.899V262.225H133.696C133.377 262.225 133.123 262.306 132.933 262.467C132.743 262.628 132.648 262.832 132.648 263.079ZM145.313 267H144.008V262.241H141.742V267H140.437V261.188H145.313V267ZM146.458 264.041C146.458 263.471 146.57 262.959 146.796 262.504C147.021 262.046 147.338 261.695 147.747 261.452C148.155 261.205 148.624 261.081 149.154 261.081C149.938 261.081 150.574 261.333 151.061 261.838C151.551 262.343 151.816 263.013 151.855 263.847L151.861 264.153C151.861 264.726 151.75 265.238 151.528 265.689C151.309 266.141 150.994 266.49 150.583 266.737C150.174 266.984 149.702 267.107 149.165 267.107C148.345 267.107 147.688 266.835 147.193 266.291C146.703 265.743 146.458 265.014 146.458 264.105V264.041ZM147.763 264.153C147.763 264.751 147.886 265.22 148.133 265.561C148.38 265.897 148.724 266.065 149.165 266.065C149.605 266.065 149.947 265.894 150.19 265.55C150.438 265.206 150.561 264.703 150.561 264.041C150.561 263.453 150.434 262.988 150.18 262.644C149.929 262.3 149.587 262.128 149.154 262.128C148.728 262.128 148.389 262.299 148.139 262.639C147.888 262.975 147.763 263.48 147.763 264.153ZM159.155 265.394L160.874 261.188H162.506V267H161.201V263.154L159.601 267H158.714L157.108 263.133V267H155.803V261.188H157.447L159.155 265.394ZM167.448 267C167.39 266.889 167.34 266.708 167.297 266.458C166.882 266.891 166.374 267.107 165.772 267.107C165.188 267.107 164.712 266.941 164.343 266.608C163.974 266.275 163.79 265.863 163.79 265.373C163.79 264.753 164.019 264.279 164.478 263.949C164.939 263.616 165.598 263.45 166.454 263.45H167.254V263.068C167.254 262.768 167.17 262.528 167.002 262.349C166.834 262.166 166.578 262.075 166.234 262.075C165.937 262.075 165.693 262.15 165.503 262.3C165.314 262.447 165.219 262.635 165.219 262.864H163.914C163.914 262.546 164.019 262.248 164.23 261.973C164.442 261.693 164.728 261.475 165.09 261.317C165.455 261.16 165.861 261.081 166.309 261.081C166.989 261.081 167.532 261.253 167.937 261.597C168.341 261.937 168.549 262.417 168.56 263.036V265.657C168.56 266.18 168.633 266.597 168.78 266.909V267H167.448ZM166.014 266.06C166.271 266.06 166.513 265.997 166.739 265.872C166.968 265.747 167.14 265.578 167.254 265.367V264.271H166.551C166.067 264.271 165.704 264.356 165.46 264.524C165.217 264.692 165.095 264.93 165.095 265.238C165.095 265.489 165.178 265.689 165.342 265.84C165.511 265.987 165.734 266.06 166.014 266.06ZM173.796 262.241H171.272V267H169.972V261.188H173.796V262.241ZM178.007 267C177.95 266.889 177.9 266.708 177.857 266.458C177.442 266.891 176.933 267.107 176.332 267.107C175.748 267.107 175.272 266.941 174.903 266.608C174.534 266.275 174.35 265.863 174.35 265.373C174.35 264.753 174.579 264.279 175.037 263.949C175.499 263.616 176.158 263.45 177.014 263.45H177.814V263.068C177.814 262.768 177.73 262.528 177.562 262.349C177.393 262.166 177.137 262.075 176.793 262.075C176.496 262.075 176.253 262.15 176.063 262.3C175.873 262.447 175.778 262.635 175.778 262.864H174.473C174.473 262.546 174.579 262.248 174.79 261.973C175.001 261.693 175.288 261.475 175.649 261.317C176.015 261.16 176.421 261.081 176.869 261.081C177.549 261.081 178.091 261.253 178.496 261.597C178.901 261.937 179.108 262.417 179.119 263.036V265.657C179.119 266.18 179.193 266.597 179.339 266.909V267H178.007ZM176.573 266.06C176.831 266.06 177.073 265.997 177.298 265.872C177.528 265.747 177.699 265.578 177.814 265.367V264.271H177.11C176.627 264.271 176.264 264.356 176.02 264.524C175.777 264.692 175.655 264.93 175.655 265.238C175.655 265.489 175.737 265.689 175.902 265.84C176.07 265.987 176.294 266.06 176.573 266.06ZM184.888 262.778C184.888 263.036 184.809 263.274 184.651 263.493C184.497 263.708 184.279 263.879 183.996 264.008C184.662 264.241 184.995 264.69 184.995 265.356C184.995 265.89 184.778 266.316 184.345 266.635C183.912 266.95 183.332 267.107 182.605 267.107C182.161 267.107 181.756 267.034 181.391 266.887C181.026 266.737 180.741 266.526 180.537 266.253C180.333 265.978 180.231 265.652 180.231 265.276H181.531C181.531 265.512 181.636 265.711 181.848 265.872C182.059 266.03 182.326 266.108 182.648 266.108C182.967 266.108 183.219 266.035 183.405 265.888C183.595 265.738 183.69 265.543 183.69 265.303C183.69 265.02 183.608 264.816 183.443 264.69C183.278 264.565 183.024 264.502 182.68 264.502H181.746V263.562H182.712C183.296 263.555 183.588 263.315 183.588 262.843C183.588 262.606 183.504 262.422 183.335 262.29C183.167 262.157 182.936 262.091 182.643 262.091C182.356 262.091 182.114 262.162 181.917 262.306C181.721 262.445 181.622 262.623 181.622 262.837H180.322C180.322 262.325 180.537 261.906 180.967 261.581C181.396 261.251 181.943 261.086 182.605 261.086C183.325 261.086 183.885 261.233 184.286 261.527C184.687 261.82 184.888 262.238 184.888 262.778ZM189.732 261.188H191.032V267H189.732V263.122L187.455 267H186.155V261.188H187.455V265.066L189.732 261.188ZM197.343 267H196.038V264.653H193.777V267H192.472V261.188H193.777V263.611H196.038V261.188H197.343V267ZM200.77 265.131L201.952 261.188H203.343L201.033 267.881C200.679 268.858 200.077 269.347 199.229 269.347C199.039 269.347 198.829 269.315 198.6 269.25V268.241L198.847 268.257C199.177 268.257 199.424 268.196 199.588 268.074C199.757 267.956 199.889 267.756 199.986 267.473L200.174 266.973L198.133 261.188H199.54L200.77 265.131Z" fill="white"/>
<rect x="8" y="129" width="10" height="2" rx="1" fill="white" fill-opacity="0.3"/>
<rect x="8" y="125" width="10" height="2" rx="1" fill="white" fill-opacity="0.3"/>
<defs>
<linearGradient id="paint0_linear_199" x1="264" y1="22" x2="264" y2="322" gradientUnits="userSpaceOnUse">
<stop stop-color="#22CE53"/>
<stop offset="0.395833" stop-color="#121839"/>
<stop offset="0.9999" stop-color="#0F1532" stop-opacity="0.873684"/>
<stop offset="1" stop-opacity="0"/>
</linearGradient>
</defs>
</svg>
