<svg width="641" height="316" viewBox="0 0 641 316" fill="none" xmlns="http://www.w3.org/2000/svg">
<path d="M81.9141 29H80.1914V24.5771H75.7412V29H74.0117V19.0469H75.7412V23.1895H80.1914V19.0469H81.9141V29ZM83.4932 25.2334C83.4932 24.5088 83.6367 23.8571 83.9238 23.2783C84.2109 22.695 84.6143 22.2484 85.1338 21.9385C85.6533 21.624 86.2503 21.4668 86.9248 21.4668C87.9229 21.4668 88.7318 21.7881 89.3516 22.4307C89.9759 23.0732 90.3132 23.9255 90.3633 24.9873L90.3701 25.377C90.3701 26.1061 90.2288 26.7578 89.9463 27.332C89.6683 27.9062 89.2673 28.3506 88.7432 28.665C88.2236 28.9795 87.6221 29.1367 86.9385 29.1367C85.8949 29.1367 85.0586 28.7904 84.4297 28.0977C83.8053 27.4004 83.4932 26.473 83.4932 25.3154V25.2334ZM85.1543 25.377C85.1543 26.138 85.3115 26.735 85.626 27.168C85.9404 27.5964 86.3779 27.8105 86.9385 27.8105C87.499 27.8105 87.9342 27.5918 88.2441 27.1543C88.5586 26.7168 88.7158 26.0765 88.7158 25.2334C88.7158 24.486 88.554 23.8936 88.2305 23.4561C87.9115 23.0186 87.4762 22.7998 86.9248 22.7998C86.3825 22.7998 85.9518 23.0163 85.6328 23.4492C85.3138 23.8776 85.1543 24.5202 85.1543 25.377ZM97.6982 21.6035V29H96.0439V26.2861H94.4922L92.9131 29H91.1904L92.9336 26.0127C92.4779 25.8213 92.127 25.5479 91.8809 25.1924C91.6393 24.8369 91.5186 24.429 91.5186 23.9688C91.5186 23.2806 91.7829 22.7178 92.3115 22.2803C92.8447 21.8382 93.5625 21.6126 94.4648 21.6035H97.6982ZM93.1797 24.0098C93.1797 24.3197 93.2936 24.5726 93.5215 24.7686C93.7539 24.96 94.0501 25.0557 94.4102 25.0557H96.0439V22.9229H94.5127C94.1071 22.9229 93.7835 23.0254 93.542 23.2305C93.3005 23.4355 93.1797 23.6953 93.1797 24.0098ZM103.023 22.0137C103.953 22.0137 104.698 22.3258 105.259 22.9502C105.819 23.57 106.1 24.4131 106.1 25.4795V25.5615C106.1 26.6279 105.794 27.4915 105.184 28.1523C104.577 28.8132 103.753 29.1436 102.709 29.1436C101.693 29.1436 100.872 28.8063 100.248 28.1318C99.6237 27.4574 99.3115 26.5368 99.3115 25.3701V24.8916C99.3115 23.2965 99.5941 22.0342 100.159 21.1045C100.724 20.1748 101.567 19.5938 102.688 19.3613C103.317 19.2337 103.723 19.0993 103.905 18.958C104.092 18.8122 104.186 18.6162 104.186 18.3701H105.525C105.525 18.8304 105.45 19.2041 105.3 19.4912C105.149 19.7783 104.919 20.013 104.609 20.1953C104.299 20.373 103.766 20.5417 103.01 20.7012C102.317 20.847 101.788 21.1068 101.424 21.4805C101.064 21.8542 100.822 22.3714 100.699 23.0322C101.36 22.3532 102.135 22.0137 103.023 22.0137ZM102.695 23.3467C102.158 23.3467 101.736 23.529 101.431 23.8936C101.125 24.2536 100.973 24.8096 100.973 25.5615C100.973 26.2725 101.123 26.8262 101.424 27.2227C101.725 27.6191 102.153 27.8174 102.709 27.8174C103.26 27.8174 103.687 27.6191 103.987 27.2227C104.293 26.8216 104.445 26.2201 104.445 25.418C104.445 24.7799 104.293 24.2764 103.987 23.9072C103.687 23.5335 103.256 23.3467 102.695 23.3467ZM113.756 25.377C113.756 26.5208 113.496 27.4346 112.977 28.1182C112.457 28.7972 111.76 29.1367 110.885 29.1367C110.074 29.1367 109.424 28.8701 108.937 28.3369V31.8438H107.275V21.6035H108.807L108.875 22.3555C109.363 21.763 110.026 21.4668 110.864 21.4668C111.767 21.4668 112.473 21.804 112.983 22.4785C113.498 23.1484 113.756 24.0804 113.756 25.2744V25.377ZM112.102 25.2334C112.102 24.4951 111.953 23.9095 111.657 23.4766C111.366 23.0436 110.946 22.8271 110.399 22.8271C109.72 22.8271 109.233 23.1074 108.937 23.668V26.9492C109.237 27.5234 109.729 27.8105 110.413 27.8105C110.942 27.8105 111.354 27.5986 111.65 27.1748C111.951 26.7464 112.102 26.0993 112.102 25.2334ZM116.818 23.9551H118.445C119.051 23.9551 119.58 24.0599 120.031 24.2695C120.482 24.4792 120.824 24.7731 121.057 25.1514C121.294 25.5296 121.412 25.9694 121.412 26.4707C121.412 27.2318 121.143 27.8424 120.605 28.3027C120.068 28.763 119.352 28.9954 118.459 29H115.157V21.6035H116.818V23.9551ZM116.818 25.2881V27.6738H118.438C118.844 27.6738 119.163 27.5736 119.396 27.373C119.632 27.168 119.751 26.8786 119.751 26.5049C119.751 26.1312 119.635 25.8372 119.402 25.623C119.174 25.4043 118.865 25.2926 118.473 25.2881H116.818Z" fill="black"/>
<line x1="97.5" y1="46" x2="97.5" y2="303" stroke="#C2C2C2"/>
<path d="M322.165 31.4473H320.524V29H313.969V31.4473H312.301L312.246 27.6191H313.046C313.442 27.2363 313.759 26.6803 313.996 25.9512C314.233 25.2174 314.386 24.388 314.454 23.4629L314.714 19.0469H320.989V27.6191H322.254L322.165 31.4473ZM315.001 27.6191H319.267V20.4414H316.361L316.197 23.2441C316.074 25.1172 315.675 26.5755 315.001 27.6191ZM326.649 29.1367C325.597 29.1367 324.742 28.8063 324.086 28.1455C323.434 27.4801 323.108 26.596 323.108 25.4932V25.2881C323.108 24.5498 323.25 23.8913 323.532 23.3125C323.819 22.7292 324.22 22.2757 324.735 21.9521C325.25 21.6286 325.825 21.4668 326.458 21.4668C327.465 21.4668 328.242 21.7881 328.789 22.4307C329.34 23.0732 329.616 23.9824 329.616 25.1582V25.8281H324.783C324.833 26.4388 325.036 26.9219 325.392 27.2773C325.752 27.6328 326.203 27.8105 326.745 27.8105C327.506 27.8105 328.126 27.5029 328.604 26.8877L329.5 27.7422C329.204 28.1842 328.807 28.5283 328.311 28.7744C327.818 29.016 327.265 29.1367 326.649 29.1367ZM326.451 22.7998C325.995 22.7998 325.626 22.9593 325.344 23.2783C325.066 23.5973 324.888 24.0417 324.811 24.6113H327.976V24.4883C327.939 23.9323 327.791 23.513 327.531 23.2305C327.271 22.9434 326.911 22.7998 326.451 22.7998ZM333.54 26.0742H332.699V29H331.038V21.6035H332.699V24.5566H333.431L335.475 21.6035H337.525L334.853 25.1445L337.751 29H335.591L333.54 26.0742ZM343.083 29C343.01 28.8587 342.946 28.6286 342.892 28.3096C342.363 28.861 341.716 29.1367 340.95 29.1367C340.207 29.1367 339.601 28.9248 339.132 28.501C338.662 28.0771 338.428 27.5531 338.428 26.9287C338.428 26.1403 338.719 25.5365 339.303 25.1172C339.891 24.6934 340.729 24.4814 341.818 24.4814H342.837V23.9961C342.837 23.6133 342.73 23.3079 342.516 23.0801C342.301 22.8477 341.976 22.7314 341.538 22.7314C341.16 22.7314 340.85 22.8271 340.608 23.0186C340.367 23.2054 340.246 23.4447 340.246 23.7363H338.585C338.585 23.3307 338.719 22.9525 338.988 22.6016C339.257 22.2461 339.622 21.9681 340.082 21.7676C340.547 21.5671 341.064 21.4668 341.634 21.4668C342.5 21.4668 343.19 21.6855 343.705 22.123C344.22 22.556 344.484 23.1667 344.498 23.9551V27.291C344.498 27.9564 344.591 28.4873 344.778 28.8838V29H343.083ZM341.258 27.8037C341.586 27.8037 341.894 27.724 342.181 27.5645C342.472 27.4049 342.691 27.1908 342.837 26.9219V25.5273H341.941C341.326 25.5273 340.864 25.6344 340.554 25.8486C340.244 26.0628 340.089 26.3659 340.089 26.7578C340.089 27.0768 340.194 27.332 340.403 27.5234C340.618 27.7103 340.902 27.8037 341.258 27.8037ZM349.721 22.0137C350.65 22.0137 351.396 22.3258 351.956 22.9502C352.517 23.57 352.797 24.4131 352.797 25.4795V25.5615C352.797 26.6279 352.492 27.4915 351.881 28.1523C351.275 28.8132 350.45 29.1436 349.406 29.1436C348.39 29.1436 347.57 28.8063 346.945 28.1318C346.321 27.4574 346.009 26.5368 346.009 25.3701V24.8916C346.009 23.2965 346.291 22.0342 346.856 21.1045C347.422 20.1748 348.265 19.5938 349.386 19.3613C350.015 19.2337 350.42 19.0993 350.603 18.958C350.789 18.8122 350.883 18.6162 350.883 18.3701H352.223C352.223 18.8304 352.147 19.2041 351.997 19.4912C351.847 19.7783 351.617 20.013 351.307 20.1953C350.997 20.373 350.464 20.5417 349.707 20.7012C349.014 20.847 348.486 21.1068 348.121 21.4805C347.761 21.8542 347.52 22.3714 347.396 23.0322C348.057 22.3532 348.832 22.0137 349.721 22.0137ZM349.393 23.3467C348.855 23.3467 348.433 23.529 348.128 23.8936C347.823 24.2536 347.67 24.8096 347.67 25.5615C347.67 26.2725 347.82 26.8262 348.121 27.2227C348.422 27.6191 348.85 27.8174 349.406 27.8174C349.958 27.8174 350.384 27.6191 350.685 27.2227C350.99 26.8216 351.143 26.2201 351.143 25.418C351.143 24.7799 350.99 24.2764 350.685 23.9072C350.384 23.5335 349.953 23.3467 349.393 23.3467ZM360.453 25.377C360.453 26.5208 360.193 27.4346 359.674 28.1182C359.154 28.7972 358.457 29.1367 357.582 29.1367C356.771 29.1367 356.121 28.8701 355.634 28.3369V31.8438H353.973V21.6035H355.504L355.572 22.3555C356.06 21.763 356.723 21.4668 357.562 21.4668C358.464 21.4668 359.17 21.804 359.681 22.4785C360.196 23.1484 360.453 24.0804 360.453 25.2744V25.377ZM358.799 25.2334C358.799 24.4951 358.651 23.9095 358.354 23.4766C358.063 23.0436 357.644 22.8271 357.097 22.8271C356.418 22.8271 355.93 23.1074 355.634 23.668V26.9492C355.935 27.5234 356.427 27.8105 357.11 27.8105C357.639 27.8105 358.051 27.5986 358.348 27.1748C358.648 26.7464 358.799 26.0993 358.799 25.2334ZM363.516 23.9551H365.143C365.749 23.9551 366.277 24.0599 366.729 24.2695C367.18 24.4792 367.521 24.7731 367.754 25.1514C367.991 25.5296 368.109 25.9694 368.109 26.4707C368.109 27.2318 367.84 27.8424 367.303 28.3027C366.765 28.763 366.049 28.9954 365.156 29H361.854V21.6035H363.516V23.9551ZM363.516 25.2881V27.6738H365.136C365.541 27.6738 365.86 27.5736 366.093 27.373C366.33 27.168 366.448 26.8786 366.448 26.5049C366.448 26.1312 366.332 25.8372 366.1 25.623C365.872 25.4043 365.562 25.2926 365.17 25.2881H363.516Z" fill="black"/>
<line x1="340.5" y1="46" x2="340.5" y2="303" stroke="#C2C2C2"/>
<path d="M564.92 29V25.2812H562.992L561.071 29H559.219L561.44 24.7686C560.283 24.2217 559.704 23.3262 559.704 22.082C559.704 21.1296 560.016 20.389 560.641 19.8604C561.27 19.3271 562.145 19.056 563.266 19.0469H566.649V29H564.92ZM561.427 22.1572C561.427 22.7178 561.584 23.1553 561.898 23.4697C562.213 23.7842 562.685 23.9414 563.313 23.9414H564.92V20.4414H563.313C562.675 20.4414 562.201 20.5941 561.892 20.8994C561.582 21.2048 561.427 21.624 561.427 22.1572ZM574.812 29H573.15V26.0127H570.272V29H568.611V21.6035H570.272V24.6865H573.15V21.6035H574.812V29ZM576.712 29V21.6035H579.713C580.725 21.6035 581.495 21.7812 582.023 22.1367C582.552 22.4876 582.816 22.9935 582.816 23.6543C582.816 23.9961 582.709 24.3037 582.495 24.5771C582.285 24.846 581.973 25.0534 581.559 25.1992C582.042 25.2995 582.424 25.5023 582.707 25.8076C582.99 26.113 583.131 26.473 583.131 26.8877C583.131 27.5758 582.876 28.0999 582.365 28.46C581.859 28.82 581.13 29 580.178 29H576.712ZM578.373 25.8486V27.6875H580.191C581.044 27.6875 581.47 27.3822 581.47 26.7715C581.47 26.1562 581.037 25.8486 580.171 25.8486H578.373ZM578.373 24.6592H579.74C580.684 24.6592 581.155 24.3812 581.155 23.8252C581.155 23.2419 580.709 22.9411 579.815 22.9229H578.373V24.6592ZM588.989 29C588.916 28.8587 588.853 28.6286 588.798 28.3096C588.269 28.861 587.622 29.1367 586.856 29.1367C586.114 29.1367 585.507 28.9248 585.038 28.501C584.569 28.0771 584.334 27.5531 584.334 26.9287C584.334 26.1403 584.626 25.5365 585.209 25.1172C585.797 24.6934 586.635 24.4814 587.725 24.4814H588.743V23.9961C588.743 23.6133 588.636 23.3079 588.422 23.0801C588.208 22.8477 587.882 22.7314 587.444 22.7314C587.066 22.7314 586.756 22.8271 586.515 23.0186C586.273 23.2054 586.152 23.4447 586.152 23.7363H584.491C584.491 23.3307 584.626 22.9525 584.895 22.6016C585.163 22.2461 585.528 21.9681 585.988 21.7676C586.453 21.5671 586.97 21.4668 587.54 21.4668C588.406 21.4668 589.096 21.6855 589.611 22.123C590.126 22.556 590.391 23.1667 590.404 23.9551V27.291C590.404 27.9564 590.498 28.4873 590.685 28.8838V29H588.989ZM587.164 27.8037C587.492 27.8037 587.8 27.724 588.087 27.5645C588.379 27.4049 588.597 27.1908 588.743 26.9219V25.5273H587.848C587.232 25.5273 586.77 25.6344 586.46 25.8486C586.15 26.0628 585.995 26.3659 585.995 26.7578C585.995 27.0768 586.1 27.332 586.31 27.5234C586.524 27.7103 586.809 27.8037 587.164 27.8037ZM598.621 25.377C598.621 26.5208 598.361 27.4346 597.842 28.1182C597.322 28.7972 596.625 29.1367 595.75 29.1367C594.939 29.1367 594.289 28.8701 593.802 28.3369V31.8438H592.141V21.6035H593.672L593.74 22.3555C594.228 21.763 594.891 21.4668 595.729 21.4668C596.632 21.4668 597.338 21.804 597.849 22.4785C598.364 23.1484 598.621 24.0804 598.621 25.2744V25.377ZM596.967 25.2334C596.967 24.4951 596.819 23.9095 596.522 23.4766C596.231 23.0436 595.812 22.8271 595.265 22.8271C594.586 22.8271 594.098 23.1074 593.802 23.668V26.9492C594.103 27.5234 594.595 27.8105 595.278 27.8105C595.807 27.8105 596.219 27.5986 596.516 27.1748C596.816 26.7464 596.967 26.0993 596.967 25.2334ZM601.684 23.9551H603.311C603.917 23.9551 604.445 24.0599 604.896 24.2695C605.348 24.4792 605.689 24.7731 605.922 25.1514C606.159 25.5296 606.277 25.9694 606.277 26.4707C606.277 27.2318 606.008 27.8424 605.471 28.3027C604.933 28.763 604.217 28.9954 603.324 29H600.022V21.6035H601.684V23.9551ZM601.684 25.2881V27.6738H603.304C603.709 27.6738 604.028 27.5736 604.261 27.373C604.498 27.168 604.616 26.8786 604.616 26.5049C604.616 26.1312 604.5 25.8372 604.268 25.623C604.04 25.4043 603.73 25.2926 603.338 25.2881H601.684Z" fill="black"/>
<line x1="583.5" y1="46" x2="583.5" y2="303" stroke="#C2C2C2"/>
<rect x="413" y="125" width="228" height="40" rx="5" fill="#FE2C55"/>
<rect x="53" y="244" width="572" height="40" rx="5" fill="#1DA1F2"/>
<rect x="177" y="175" width="161" height="40" rx="5" fill="#010101"/>
<rect x="66" y="266" width="15" height="3" rx="1" fill="white" fill-opacity="0.3"/>
<rect x="66" y="259" width="15" height="3" rx="1" fill="white" fill-opacity="0.3"/>
<rect x="190" y="197" width="15" height="3" rx="1" fill="white" fill-opacity="0.3"/>
<rect x="190" y="190" width="15" height="3" rx="1" fill="white" fill-opacity="0.3"/>
<rect x="425" y="147" width="15" height="3" rx="1" fill="white" fill-opacity="0.3"/>
<rect x="425" y="140" width="15" height="3" rx="1" fill="white" fill-opacity="0.3"/>
<rect y="123" width="166" height="40" rx="5" fill="#FEB42C"/>
<circle cx="265.5" cy="8.5" r="8.5" fill="#22CE53" fill-opacity="0.25"/>
<circle cx="265.5" cy="8.5" r="3.5" fill="#22CE53"/>
<line x1="265.5" y1="22.5" x2="265.5" y2="315.5" stroke="url(#paint0_linear_199)" stroke-linecap="round" stroke-dasharray="5 5"/>
<path d="M40.4365 140.643L42.5283 137.047H44.5244L41.5166 141.982L44.5928 147H42.5762L40.4365 143.35L38.29 147H36.2803L39.3633 141.982L36.3486 137.047H38.3447L40.4365 140.643ZM48.3662 140.8C47.9788 140.8 47.6507 140.921 47.3818 141.162C47.113 141.399 46.9785 141.698 46.9785 142.058H45.4131C45.4131 141.602 45.5452 141.176 45.8096 140.779C46.0739 140.378 46.4362 140.059 46.8965 139.822C47.3568 139.585 47.8467 139.467 48.3662 139.467C49.3688 139.467 50.1732 139.811 50.7793 140.499C51.39 141.187 51.6953 142.105 51.6953 143.254V143.425C51.6953 144.131 51.5563 144.771 51.2783 145.346C51.0049 145.92 50.6175 146.362 50.1162 146.672C49.6149 146.982 49.0339 147.137 48.373 147.137C47.8125 147.137 47.3044 147.021 46.8486 146.788C46.3929 146.551 46.0397 146.221 45.7891 145.797C45.5384 145.373 45.4131 144.895 45.4131 144.361H46.9785C46.9785 144.785 47.113 145.134 47.3818 145.407C47.6507 145.676 47.9811 145.811 48.373 145.811C48.8379 145.811 49.2139 145.637 49.501 145.291C49.7881 144.94 49.959 144.452 50.0137 143.828H47.6895V142.68H50.0068C49.943 142.078 49.7676 141.616 49.4805 141.292C49.1934 140.964 48.8219 140.8 48.3662 140.8ZM59.3105 139.604V147H57.6494V140.943H55.5576L55.4209 143.521C55.3343 144.76 55.0951 145.651 54.7031 146.193C54.3158 146.731 53.721 147 52.9189 147H52.4062L52.3994 145.619L52.7412 145.585C53.1058 145.535 53.3701 145.314 53.5342 144.922C53.7028 144.525 53.8099 143.805 53.8555 142.762L53.9922 139.604H59.3105ZM67.3633 139.604V147H65.7021V140.943H63.6104L63.4736 143.521C63.387 144.76 63.1478 145.651 62.7559 146.193C62.3685 146.731 61.7738 147 60.9717 147H60.459L60.4521 145.619L60.7939 145.585C61.1585 145.535 61.4229 145.314 61.5869 144.922C61.7555 144.525 61.8626 143.805 61.9082 142.762L62.0449 139.604H67.3633ZM68.8193 143.233C68.8193 142.509 68.9629 141.857 69.25 141.278C69.5371 140.695 69.9404 140.248 70.46 139.938C70.9795 139.624 71.5765 139.467 72.251 139.467C73.249 139.467 74.0579 139.788 74.6777 140.431C75.3021 141.073 75.6393 141.925 75.6895 142.987L75.6963 143.377C75.6963 144.106 75.555 144.758 75.2725 145.332C74.9945 145.906 74.5934 146.351 74.0693 146.665C73.5498 146.979 72.9482 147.137 72.2646 147.137C71.221 147.137 70.3848 146.79 69.7559 146.098C69.1315 145.4 68.8193 144.473 68.8193 143.315V143.233ZM70.4805 143.377C70.4805 144.138 70.6377 144.735 70.9521 145.168C71.2666 145.596 71.7041 145.811 72.2646 145.811C72.8252 145.811 73.2604 145.592 73.5703 145.154C73.8848 144.717 74.042 144.076 74.042 143.233C74.042 142.486 73.8802 141.894 73.5566 141.456C73.2376 141.019 72.8024 140.8 72.251 140.8C71.7087 140.8 71.278 141.016 70.959 141.449C70.64 141.878 70.4805 142.52 70.4805 143.377ZM79.5791 144.621L81.083 139.604H82.8535L79.9141 148.121C79.4629 149.365 78.6973 149.987 77.6172 149.987C77.3757 149.987 77.109 149.946 76.8174 149.864V148.579L77.1318 148.6C77.5511 148.6 77.8656 148.522 78.0752 148.367C78.2894 148.217 78.458 147.962 78.5811 147.602L78.8203 146.966L76.2227 139.604H78.0137L79.5791 144.621ZM88.4316 139.604H90.0859V147H88.4316V142.064L85.5332 147H83.8789V139.604H85.5332V144.539L88.4316 139.604ZM98.1182 147H96.457V144.013H93.5791V147H91.918V139.604H93.5791V142.687H96.457V139.604H98.1182V147ZM106.602 143.438H103.013V142.099H106.602V143.438ZM117.19 144.683H113.335L112.528 147H110.73L114.49 137.047H116.042L119.809 147H118.004L117.19 144.683ZM113.82 143.288H116.705L115.263 139.159L113.82 143.288ZM123.083 144.074H122.242V147H120.581V139.604H122.242V142.557H122.974L125.018 139.604H127.068L124.396 143.145L127.294 147H125.134L123.083 144.074ZM128.271 139.604H129.933V145.674H132.817V139.604H134.479V145.674H135.483L135.347 149.194H133.836V147H128.271V139.604ZM141.273 139.604H142.928V147H141.273V142.064L138.375 147H136.721V139.604H138.375V144.539L141.273 139.604ZM149.312 139.604H150.967V147H149.312V142.064L146.414 147H144.76V139.604H146.414V144.539L149.312 139.604Z" fill="white"/>
<path d="M224.627 189.047V199H222.904V195.083C222.166 195.27 221.396 195.363 220.594 195.363C219.404 195.363 218.504 195.101 217.894 194.577C217.283 194.053 216.975 193.262 216.971 192.205V189.047H218.693V192.219C218.698 192.852 218.844 193.303 219.131 193.572C219.418 193.841 219.906 193.976 220.594 193.976C221.387 193.976 222.157 193.88 222.904 193.688V189.047H224.627ZM229.802 199.137C228.749 199.137 227.895 198.806 227.238 198.146C226.587 197.48 226.261 196.596 226.261 195.493V195.288C226.261 194.55 226.402 193.891 226.685 193.312C226.972 192.729 227.373 192.276 227.888 191.952C228.403 191.629 228.977 191.467 229.61 191.467C230.618 191.467 231.395 191.788 231.941 192.431C232.493 193.073 232.769 193.982 232.769 195.158V195.828H227.936C227.986 196.439 228.188 196.922 228.544 197.277C228.904 197.633 229.355 197.811 229.897 197.811C230.659 197.811 231.278 197.503 231.757 196.888L232.652 197.742C232.356 198.184 231.96 198.528 231.463 198.774C230.971 199.016 230.417 199.137 229.802 199.137ZM229.604 192.8C229.148 192.8 228.779 192.959 228.496 193.278C228.218 193.597 228.04 194.042 227.963 194.611H231.128V194.488C231.091 193.932 230.943 193.513 230.684 193.23C230.424 192.943 230.064 192.8 229.604 192.8ZM240.541 195.377C240.541 196.521 240.281 197.435 239.762 198.118C239.242 198.797 238.545 199.137 237.67 199.137C236.859 199.137 236.209 198.87 235.722 198.337V201.844H234.061V191.604H235.592L235.66 192.355C236.148 191.763 236.811 191.467 237.649 191.467C238.552 191.467 239.258 191.804 239.769 192.479C240.284 193.148 240.541 194.08 240.541 195.274V195.377ZM238.887 195.233C238.887 194.495 238.739 193.91 238.442 193.477C238.151 193.044 237.731 192.827 237.185 192.827C236.506 192.827 236.018 193.107 235.722 193.668V196.949C236.022 197.523 236.515 197.811 237.198 197.811C237.727 197.811 238.139 197.599 238.436 197.175C238.736 196.746 238.887 196.099 238.887 195.233ZM248.218 199H246.557V196.013H243.679V199H242.018V191.604H243.679V194.687H246.557V191.604H248.218V199ZM254.411 199C254.338 198.859 254.274 198.629 254.22 198.31C253.691 198.861 253.044 199.137 252.278 199.137C251.535 199.137 250.929 198.925 250.46 198.501C249.991 198.077 249.756 197.553 249.756 196.929C249.756 196.14 250.048 195.536 250.631 195.117C251.219 194.693 252.057 194.481 253.146 194.481H254.165V193.996C254.165 193.613 254.058 193.308 253.844 193.08C253.63 192.848 253.304 192.731 252.866 192.731C252.488 192.731 252.178 192.827 251.937 193.019C251.695 193.205 251.574 193.445 251.574 193.736H249.913C249.913 193.331 250.048 192.952 250.316 192.602C250.585 192.246 250.95 191.968 251.41 191.768C251.875 191.567 252.392 191.467 252.962 191.467C253.828 191.467 254.518 191.686 255.033 192.123C255.548 192.556 255.812 193.167 255.826 193.955V197.291C255.826 197.956 255.92 198.487 256.106 198.884V199H254.411ZM252.586 197.804C252.914 197.804 253.222 197.724 253.509 197.564C253.8 197.405 254.019 197.191 254.165 196.922V195.527H253.27C252.654 195.527 252.192 195.634 251.882 195.849C251.572 196.063 251.417 196.366 251.417 196.758C251.417 197.077 251.522 197.332 251.731 197.523C251.946 197.71 252.23 197.804 252.586 197.804ZM263.489 191.604V199H261.835V196.286H260.283L258.704 199H256.981L258.725 196.013C258.269 195.821 257.918 195.548 257.672 195.192C257.43 194.837 257.31 194.429 257.31 193.969C257.31 193.281 257.574 192.718 258.103 192.28C258.636 191.838 259.354 191.613 260.256 191.604H263.489ZM258.971 194.01C258.971 194.32 259.085 194.573 259.312 194.769C259.545 194.96 259.841 195.056 260.201 195.056H261.835V192.923H260.304C259.898 192.923 259.575 193.025 259.333 193.23C259.091 193.436 258.971 193.695 258.971 194.01ZM275.09 199H273.429V192.943H270.544V199H268.883V191.604H275.09V199ZM282.78 191.604V199H281.126V196.286H279.574L277.995 199H276.272L278.016 196.013C277.56 195.821 277.209 195.548 276.963 195.192C276.721 194.837 276.601 194.429 276.601 193.969C276.601 193.281 276.865 192.718 277.394 192.28C277.927 191.838 278.645 191.613 279.547 191.604H282.78ZM278.262 194.01C278.262 194.32 278.376 194.573 278.604 194.769C278.836 194.96 279.132 195.056 279.492 195.056H281.126V192.923H279.595C279.189 192.923 278.866 193.025 278.624 193.23C278.382 193.436 278.262 193.695 278.262 194.01ZM290.443 192.923H288.044V199H286.383V192.923H284.011V191.604H290.443V192.923ZM297.819 199H296.158V196.013H293.28V199H291.619V191.604H293.28V194.687H296.158V191.604H297.819V199ZM304.211 191.604H305.865V199H304.211V194.064L301.312 199H299.658V191.604H301.312V196.539L304.211 191.604ZM307.697 191.604H309.358V197.674H312.243V191.604H313.904V197.674H314.909L314.772 201.194H313.262V199H307.697V191.604ZM320.501 199C320.428 198.859 320.364 198.629 320.31 198.31C319.781 198.861 319.134 199.137 318.368 199.137C317.625 199.137 317.019 198.925 316.55 198.501C316.08 198.077 315.846 197.553 315.846 196.929C315.846 196.14 316.137 195.536 316.721 195.117C317.309 194.693 318.147 194.481 319.236 194.481H320.255V193.996C320.255 193.613 320.148 193.308 319.934 193.08C319.719 192.848 319.394 192.731 318.956 192.731C318.578 192.731 318.268 192.827 318.026 193.019C317.785 193.205 317.664 193.445 317.664 193.736H316.003C316.003 193.331 316.137 192.952 316.406 192.602C316.675 192.246 317.04 191.968 317.5 191.768C317.965 191.567 318.482 191.467 319.052 191.467C319.918 191.467 320.608 191.686 321.123 192.123C321.638 192.556 321.902 193.167 321.916 193.955V197.291C321.916 197.956 322.009 198.487 322.196 198.884V199H320.501ZM318.676 197.804C319.004 197.804 319.312 197.724 319.599 197.564C319.89 197.405 320.109 197.191 320.255 196.922V195.527H319.359C318.744 195.527 318.282 195.634 317.972 195.849C317.662 196.063 317.507 196.366 317.507 196.758C317.507 197.077 317.612 197.332 317.821 197.523C318.035 197.71 318.32 197.804 318.676 197.804Z" fill="white"/>
<path d="M459.914 150H458.191V145.577H453.741V150H452.012V140.047H453.741V144.189H458.191V140.047H459.914V150ZM461.493 146.233C461.493 145.509 461.637 144.857 461.924 144.278C462.211 143.695 462.614 143.248 463.134 142.938C463.653 142.624 464.25 142.467 464.925 142.467C465.923 142.467 466.732 142.788 467.352 143.431C467.976 144.073 468.313 144.925 468.363 145.987L468.37 146.377C468.37 147.106 468.229 147.758 467.946 148.332C467.668 148.906 467.267 149.351 466.743 149.665C466.224 149.979 465.622 150.137 464.938 150.137C463.895 150.137 463.059 149.79 462.43 149.098C461.805 148.4 461.493 147.473 461.493 146.315V146.233ZM463.154 146.377C463.154 147.138 463.312 147.735 463.626 148.168C463.94 148.596 464.378 148.811 464.938 148.811C465.499 148.811 465.934 148.592 466.244 148.154C466.559 147.717 466.716 147.076 466.716 146.233C466.716 145.486 466.554 144.894 466.23 144.456C465.911 144.019 465.476 143.8 464.925 143.8C464.382 143.8 463.952 144.016 463.633 144.449C463.314 144.878 463.154 145.52 463.154 146.377ZM469.901 150V142.604H472.902C473.914 142.604 474.684 142.781 475.213 143.137C475.742 143.488 476.006 143.993 476.006 144.654C476.006 144.996 475.899 145.304 475.685 145.577C475.475 145.846 475.163 146.053 474.748 146.199C475.231 146.299 475.614 146.502 475.896 146.808C476.179 147.113 476.32 147.473 476.32 147.888C476.32 148.576 476.065 149.1 475.555 149.46C475.049 149.82 474.32 150 473.367 150H469.901ZM471.562 146.849V148.688H473.381C474.233 148.688 474.659 148.382 474.659 147.771C474.659 147.156 474.226 146.849 473.36 146.849H471.562ZM471.562 145.659H472.93C473.873 145.659 474.345 145.381 474.345 144.825C474.345 144.242 473.898 143.941 473.005 143.923H471.562V145.659ZM477.448 146.233C477.448 145.509 477.592 144.857 477.879 144.278C478.166 143.695 478.569 143.248 479.089 142.938C479.608 142.624 480.205 142.467 480.88 142.467C481.878 142.467 482.687 142.788 483.307 143.431C483.931 144.073 484.268 144.925 484.318 145.987L484.325 146.377C484.325 147.106 484.184 147.758 483.901 148.332C483.623 148.906 483.222 149.351 482.698 149.665C482.179 149.979 481.577 150.137 480.894 150.137C479.85 150.137 479.014 149.79 478.385 149.098C477.76 148.4 477.448 147.473 477.448 146.315V146.233ZM479.109 146.377C479.109 147.138 479.267 147.735 479.581 148.168C479.896 148.596 480.333 148.811 480.894 148.811C481.454 148.811 481.889 148.592 482.199 148.154C482.514 147.717 482.671 147.076 482.671 146.233C482.671 145.486 482.509 144.894 482.186 144.456C481.867 144.019 481.431 143.8 480.88 143.8C480.338 143.8 479.907 144.016 479.588 144.449C479.269 144.878 479.109 145.52 479.109 146.377ZM490.655 143.943H487.442V150H485.788V142.604H490.655V143.943ZM491.147 146.233C491.147 145.509 491.291 144.857 491.578 144.278C491.865 143.695 492.269 143.248 492.788 142.938C493.308 142.624 493.905 142.467 494.579 142.467C495.577 142.467 496.386 142.788 497.006 143.431C497.63 144.073 497.967 144.925 498.018 145.987L498.024 146.377C498.024 147.106 497.883 147.758 497.601 148.332C497.323 148.906 496.922 149.351 496.397 149.665C495.878 149.979 495.276 150.137 494.593 150.137C493.549 150.137 492.713 149.79 492.084 149.098C491.46 148.4 491.147 147.473 491.147 146.315V146.233ZM492.809 146.377C492.809 147.138 492.966 147.735 493.28 148.168C493.595 148.596 494.032 148.811 494.593 148.811C495.153 148.811 495.589 148.592 495.898 148.154C496.213 147.717 496.37 147.076 496.37 146.233C496.37 145.486 496.208 144.894 495.885 144.456C495.566 144.019 495.131 143.8 494.579 143.8C494.037 143.8 493.606 144.016 493.287 144.449C492.968 144.878 492.809 145.52 492.809 146.377ZM498.968 148.674C499.428 148.159 499.736 147.671 499.891 147.211C500.05 146.746 500.146 146.154 500.178 145.434L500.273 142.604H505.407V148.674H506.433V152.201H504.778V150H500.034V152.201H498.353L498.359 148.674H498.968ZM500.916 148.674H503.753V144.032H501.887L501.839 145.447C501.775 146.805 501.467 147.881 500.916 148.674ZM513.761 150H512.1V147.013H509.222V150H507.561V142.604H509.222V145.687H512.1V142.604H513.761V150ZM520.152 142.604H521.807V150H520.152V145.064L517.254 150H515.6V142.604H517.254V147.539L520.152 142.604ZM526.831 150.137C525.778 150.137 524.924 149.806 524.268 149.146C523.616 148.48 523.29 147.596 523.29 146.493V146.288C523.29 145.55 523.431 144.891 523.714 144.312C524.001 143.729 524.402 143.276 524.917 142.952C525.432 142.629 526.006 142.467 526.64 142.467C527.647 142.467 528.424 142.788 528.971 143.431C529.522 144.073 529.798 144.982 529.798 146.158V146.828H524.965C525.015 147.439 525.218 147.922 525.573 148.277C525.933 148.633 526.384 148.811 526.927 148.811C527.688 148.811 528.308 148.503 528.786 147.888L529.682 148.742C529.385 149.184 528.989 149.528 528.492 149.774C528 150.016 527.446 150.137 526.831 150.137ZM526.633 143.8C526.177 143.8 525.808 143.959 525.525 144.278C525.247 144.597 525.07 145.042 524.992 145.611H528.157V145.488C528.121 144.932 527.973 144.513 527.713 144.23C527.453 143.943 527.093 143.8 526.633 143.8ZM540.852 150H539.19V143.943H536.306V150H534.645V142.604H540.852V150ZM549.096 146.377C549.096 147.521 548.836 148.435 548.316 149.118C547.797 149.797 547.1 150.137 546.225 150.137C545.413 150.137 544.764 149.87 544.276 149.337V152.844H542.615V142.604H544.146L544.215 143.355C544.702 142.763 545.366 142.467 546.204 142.467C547.106 142.467 547.813 142.804 548.323 143.479C548.838 144.148 549.096 145.08 549.096 146.274V146.377ZM547.441 146.233C547.441 145.495 547.293 144.91 546.997 144.477C546.705 144.044 546.286 143.827 545.739 143.827C545.06 143.827 544.573 144.107 544.276 144.668V147.949C544.577 148.523 545.069 148.811 545.753 148.811C546.282 148.811 546.694 148.599 546.99 148.175C547.291 147.746 547.441 147.099 547.441 146.233ZM553.765 150.137C552.712 150.137 551.857 149.806 551.201 149.146C550.549 148.48 550.224 147.596 550.224 146.493V146.288C550.224 145.55 550.365 144.891 550.647 144.312C550.935 143.729 551.336 143.276 551.851 142.952C552.366 142.629 552.94 142.467 553.573 142.467C554.58 142.467 555.357 142.788 555.904 143.431C556.456 144.073 556.731 144.982 556.731 146.158V146.828H551.898C551.949 147.439 552.151 147.922 552.507 148.277C552.867 148.633 553.318 148.811 553.86 148.811C554.621 148.811 555.241 148.503 555.72 147.888L556.615 148.742C556.319 149.184 555.923 149.528 555.426 149.774C554.934 150.016 554.38 150.137 553.765 150.137ZM553.566 143.8C553.111 143.8 552.742 143.959 552.459 144.278C552.181 144.597 552.003 145.042 551.926 145.611H555.091V145.488C555.054 144.932 554.906 144.513 554.646 144.23C554.387 143.943 554.027 143.8 553.566 143.8ZM558.058 148.674C558.518 148.159 558.826 147.671 558.98 147.211C559.14 146.746 559.236 146.154 559.268 145.434L559.363 142.604H564.497V148.674H565.522V152.201H563.868V150H559.124V152.201H557.442L557.449 148.674H558.058ZM560.006 148.674H562.843V144.032H560.977L560.929 145.447C560.865 146.805 560.557 147.881 560.006 148.674ZM572.994 142.604V150H571.333V143.943H569.241L569.104 146.521C569.018 147.76 568.779 148.651 568.387 149.193C567.999 149.731 567.405 150 566.603 150H566.09L566.083 148.619L566.425 148.585C566.789 148.535 567.054 148.314 567.218 147.922C567.386 147.525 567.493 146.805 567.539 145.762L567.676 142.604H572.994ZM574.45 146.233C574.45 145.509 574.594 144.857 574.881 144.278C575.168 143.695 575.571 143.248 576.091 142.938C576.61 142.624 577.207 142.467 577.882 142.467C578.88 142.467 579.689 142.788 580.309 143.431C580.933 144.073 581.27 144.925 581.32 145.987L581.327 146.377C581.327 147.106 581.186 147.758 580.903 148.332C580.625 148.906 580.224 149.351 579.7 149.665C579.181 149.979 578.579 150.137 577.896 150.137C576.852 150.137 576.016 149.79 575.387 149.098C574.762 148.4 574.45 147.473 574.45 146.315V146.233ZM576.111 146.377C576.111 147.138 576.269 147.735 576.583 148.168C576.897 148.596 577.335 148.811 577.896 148.811C578.456 148.811 578.891 148.592 579.201 148.154C579.516 147.717 579.673 147.076 579.673 146.233C579.673 145.486 579.511 144.894 579.188 144.456C578.868 144.019 578.433 143.8 577.882 143.8C577.34 143.8 576.909 144.016 576.59 144.449C576.271 144.878 576.111 145.52 576.111 146.377ZM589.093 147.026H588.211V150H586.55V147.026H585.675L583.973 150H581.936L584.39 146.151L582.065 142.604H584.096L585.771 145.509H586.55V142.604H588.211V145.509H588.997L590.679 142.604H592.709L590.392 146.131L592.859 150H590.795L589.093 147.026ZM597.009 150.137C595.956 150.137 595.102 149.806 594.445 149.146C593.794 148.48 593.468 147.596 593.468 146.493V146.288C593.468 145.55 593.609 144.891 593.892 144.312C594.179 143.729 594.58 143.276 595.095 142.952C595.61 142.629 596.184 142.467 596.817 142.467C597.825 142.467 598.602 142.788 599.148 143.431C599.7 144.073 599.976 144.982 599.976 146.158V146.828H595.143C595.193 147.439 595.396 147.922 595.751 148.277C596.111 148.633 596.562 148.811 597.104 148.811C597.866 148.811 598.485 148.503 598.964 147.888L599.859 148.742C599.563 149.184 599.167 149.528 598.67 149.774C598.178 150.016 597.624 150.137 597.009 150.137ZM596.811 143.8C596.355 143.8 595.986 143.959 595.703 144.278C595.425 144.597 595.247 145.042 595.17 145.611H598.335V145.488C598.299 144.932 598.15 144.513 597.891 144.23C597.631 143.943 597.271 143.8 596.811 143.8ZM607.536 150H605.875V147.013H602.997V150H601.336V142.604H602.997V145.687H605.875V142.604H607.536V150ZM613.928 142.604H615.582V150H613.928V145.064L611.029 150H609.375V142.604H611.029V147.539L613.928 142.604ZM623.272 142.604V150H621.618V147.286H620.066L618.487 150H616.765L618.508 147.013C618.052 146.821 617.701 146.548 617.455 146.192C617.214 145.837 617.093 145.429 617.093 144.969C617.093 144.281 617.357 143.718 617.886 143.28C618.419 142.838 619.137 142.613 620.039 142.604H623.272ZM618.754 145.01C618.754 145.32 618.868 145.573 619.096 145.769C619.328 145.96 619.624 146.056 619.984 146.056H621.618V143.923H620.087C619.681 143.923 619.358 144.025 619.116 144.23C618.875 144.436 618.754 144.695 618.754 145.01Z" fill="white"/>
<path d="M99.9141 268H98.1914V263.577H93.7412V268H92.0117V258.047H93.7412V262.189H98.1914V258.047H99.9141V268ZM106.224 268C106.151 267.859 106.087 267.629 106.032 267.31C105.504 267.861 104.856 268.137 104.091 268.137C103.348 268.137 102.742 267.925 102.272 267.501C101.803 267.077 101.568 266.553 101.568 265.929C101.568 265.14 101.86 264.536 102.443 264.117C103.031 263.693 103.87 263.481 104.959 263.481H105.978V262.996C105.978 262.613 105.87 262.308 105.656 262.08C105.442 261.848 105.116 261.731 104.679 261.731C104.3 261.731 103.991 261.827 103.749 262.019C103.507 262.205 103.387 262.445 103.387 262.736H101.726C101.726 262.331 101.86 261.952 102.129 261.602C102.398 261.246 102.762 260.968 103.223 260.768C103.688 260.567 104.205 260.467 104.774 260.467C105.64 260.467 106.331 260.686 106.846 261.123C107.361 261.556 107.625 262.167 107.639 262.955V266.291C107.639 266.956 107.732 267.487 107.919 267.884V268H106.224ZM104.398 266.804C104.727 266.804 105.034 266.724 105.321 266.564C105.613 266.405 105.832 266.191 105.978 265.922V264.527H105.082C104.467 264.527 104.004 264.634 103.694 264.849C103.384 265.063 103.229 265.366 103.229 265.758C103.229 266.077 103.334 266.332 103.544 266.523C103.758 266.71 104.043 266.804 104.398 266.804ZM109.505 268V260.604H112.506C113.518 260.604 114.288 260.781 114.816 261.137C115.345 261.488 115.609 261.993 115.609 262.654C115.609 262.996 115.502 263.304 115.288 263.577C115.078 263.846 114.766 264.053 114.352 264.199C114.835 264.299 115.217 264.502 115.5 264.808C115.783 265.113 115.924 265.473 115.924 265.888C115.924 266.576 115.669 267.1 115.158 267.46C114.652 267.82 113.923 268 112.971 268H109.505ZM111.166 264.849V266.688H112.984C113.837 266.688 114.263 266.382 114.263 265.771C114.263 265.156 113.83 264.849 112.964 264.849H111.166ZM111.166 263.659H112.533C113.477 263.659 113.948 263.381 113.948 262.825C113.948 262.242 113.502 261.941 112.608 261.923H111.166V263.659ZM121.98 260.604H123.635V268H121.98V263.064L119.082 268H117.428V260.604H119.082V265.539L121.98 260.604ZM130.327 261.943H127.114V268H125.46V260.604H130.327V261.943ZM135.687 268C135.614 267.859 135.55 267.629 135.495 267.31C134.966 267.861 134.319 268.137 133.554 268.137C132.811 268.137 132.205 267.925 131.735 267.501C131.266 267.077 131.031 266.553 131.031 265.929C131.031 265.14 131.323 264.536 131.906 264.117C132.494 263.693 133.333 263.481 134.422 263.481H135.44V262.996C135.44 262.613 135.333 262.308 135.119 262.08C134.905 261.848 134.579 261.731 134.142 261.731C133.763 261.731 133.453 261.827 133.212 262.019C132.97 262.205 132.85 262.445 132.85 262.736H131.188C131.188 262.331 131.323 261.952 131.592 261.602C131.861 261.246 132.225 260.968 132.686 260.768C133.15 260.567 133.668 260.467 134.237 260.467C135.103 260.467 135.794 260.686 136.309 261.123C136.824 261.556 137.088 262.167 137.102 262.955V266.291C137.102 266.956 137.195 267.487 137.382 267.884V268H135.687ZM133.861 266.804C134.189 266.804 134.497 266.724 134.784 266.564C135.076 266.405 135.295 266.191 135.44 265.922V264.527H134.545C133.93 264.527 133.467 264.634 133.157 264.849C132.847 265.063 132.692 265.366 132.692 265.758C132.692 266.077 132.797 266.332 133.007 266.523C133.221 266.71 133.506 266.804 133.861 266.804ZM138.906 260.604H140.567V266.674H143.452V260.604H145.113V266.674H146.118L145.981 270.194H144.471V268H138.906V260.604ZM151.908 260.604H153.562V268H151.908V263.064L149.01 268H147.355V260.604H149.01V265.539L151.908 260.604ZM161.253 260.604V268H159.599V265.286H158.047L156.468 268H154.745L156.488 265.013C156.033 264.821 155.682 264.548 155.436 264.192C155.194 263.837 155.073 263.429 155.073 262.969C155.073 262.281 155.338 261.718 155.866 261.28C156.399 260.838 157.117 260.613 158.02 260.604H161.253ZM156.734 263.01C156.734 263.32 156.848 263.573 157.076 263.769C157.309 263.96 157.605 264.056 157.965 264.056H159.599V261.923H158.067C157.662 261.923 157.338 262.025 157.097 262.23C156.855 262.436 156.734 262.695 156.734 263.01ZM172.854 268H171.192V261.943H168.308V268H166.646V260.604H172.854V268ZM174.31 264.233C174.31 263.509 174.453 262.857 174.74 262.278C175.027 261.695 175.431 261.248 175.95 260.938C176.47 260.624 177.067 260.467 177.741 260.467C178.739 260.467 179.548 260.788 180.168 261.431C180.792 262.073 181.13 262.925 181.18 263.987L181.187 264.377C181.187 265.106 181.045 265.758 180.763 266.332C180.485 266.906 180.084 267.351 179.56 267.665C179.04 267.979 178.438 268.137 177.755 268.137C176.711 268.137 175.875 267.79 175.246 267.098C174.622 266.4 174.31 265.473 174.31 264.315V264.233ZM175.971 264.377C175.971 265.138 176.128 265.735 176.442 266.168C176.757 266.596 177.194 266.811 177.755 266.811C178.315 266.811 178.751 266.592 179.061 266.154C179.375 265.717 179.532 265.076 179.532 264.233C179.532 263.486 179.37 262.894 179.047 262.456C178.728 262.019 178.293 261.8 177.741 261.8C177.199 261.8 176.768 262.016 176.449 262.449C176.13 262.878 175.971 263.52 175.971 264.377ZM190.47 265.956L192.657 260.604H194.735V268H193.074V263.105L191.037 268H189.909L187.865 263.078V268H186.204V260.604H188.296L190.47 265.956ZM201.024 268C200.951 267.859 200.888 267.629 200.833 267.31C200.304 267.861 199.657 268.137 198.892 268.137C198.149 268.137 197.543 267.925 197.073 267.501C196.604 267.077 196.369 266.553 196.369 265.929C196.369 265.14 196.661 264.536 197.244 264.117C197.832 263.693 198.671 263.481 199.76 263.481H200.778V262.996C200.778 262.613 200.671 262.308 200.457 262.08C200.243 261.848 199.917 261.731 199.479 261.731C199.101 261.731 198.791 261.827 198.55 262.019C198.308 262.205 198.188 262.445 198.188 262.736H196.526C196.526 262.331 196.661 261.952 196.93 261.602C197.199 261.246 197.563 260.968 198.023 260.768C198.488 260.567 199.006 260.467 199.575 260.467C200.441 260.467 201.132 260.686 201.646 261.123C202.161 261.556 202.426 262.167 202.439 262.955V266.291C202.439 266.956 202.533 267.487 202.72 267.884V268H201.024ZM199.199 266.804C199.527 266.804 199.835 266.724 200.122 266.564C200.414 266.405 200.632 266.191 200.778 265.922V264.527H199.883C199.268 264.527 198.805 264.634 198.495 264.849C198.185 265.063 198.03 265.366 198.03 265.758C198.03 266.077 198.135 266.332 198.345 266.523C198.559 266.71 198.844 266.804 199.199 266.804ZM209.104 261.943H205.892V268H204.237V260.604H209.104V261.943ZM214.464 268C214.391 267.859 214.327 267.629 214.272 267.31C213.744 267.861 213.097 268.137 212.331 268.137C211.588 268.137 210.982 267.925 210.513 267.501C210.043 267.077 209.809 266.553 209.809 265.929C209.809 265.14 210.1 264.536 210.684 264.117C211.271 263.693 212.11 263.481 213.199 263.481H214.218V262.996C214.218 262.613 214.111 262.308 213.896 262.08C213.682 261.848 213.356 261.731 212.919 261.731C212.541 261.731 212.231 261.827 211.989 262.019C211.748 262.205 211.627 262.445 211.627 262.736H209.966C209.966 262.331 210.1 261.952 210.369 261.602C210.638 261.246 211.003 260.968 211.463 260.768C211.928 260.567 212.445 260.467 213.015 260.467C213.881 260.467 214.571 260.686 215.086 261.123C215.601 261.556 215.865 262.167 215.879 262.955V266.291C215.879 266.956 215.972 267.487 216.159 267.884V268H214.464ZM212.639 266.804C212.967 266.804 213.274 266.724 213.562 266.564C213.853 266.405 214.072 266.191 214.218 265.922V264.527H213.322C212.707 264.527 212.244 264.634 211.935 264.849C211.625 265.063 211.47 265.366 211.47 265.758C211.47 266.077 211.575 266.332 211.784 266.523C211.998 266.71 212.283 266.804 212.639 266.804ZM223.221 262.627C223.221 262.955 223.12 263.258 222.92 263.536C222.724 263.81 222.446 264.028 222.086 264.192C222.934 264.489 223.357 265.061 223.357 265.908C223.357 266.587 223.082 267.13 222.53 267.535C221.979 267.936 221.241 268.137 220.315 268.137C219.75 268.137 219.235 268.043 218.771 267.856C218.306 267.665 217.943 267.396 217.684 267.05C217.424 266.699 217.294 266.284 217.294 265.806H218.948C218.948 266.106 219.083 266.359 219.352 266.564C219.62 266.765 219.96 266.865 220.37 266.865C220.776 266.865 221.097 266.772 221.334 266.585C221.576 266.394 221.696 266.145 221.696 265.84C221.696 265.48 221.591 265.22 221.382 265.061C221.172 264.901 220.849 264.821 220.411 264.821H219.222V263.625H220.452C221.195 263.616 221.566 263.311 221.566 262.709C221.566 262.408 221.459 262.174 221.245 262.005C221.031 261.836 220.737 261.752 220.363 261.752C219.999 261.752 219.691 261.843 219.44 262.025C219.19 262.203 219.064 262.429 219.064 262.702H217.41C217.41 262.05 217.684 261.517 218.23 261.103C218.777 260.683 219.472 260.474 220.315 260.474C221.231 260.474 221.945 260.66 222.455 261.034C222.965 261.408 223.221 261.939 223.221 262.627ZM229.387 260.604H231.041V268H229.387V263.064L226.488 268H224.834V260.604H226.488V265.539L229.387 260.604ZM239.073 268H237.412V265.013H234.534V268H232.873V260.604H234.534V263.687H237.412V260.604H239.073V268ZM243.435 265.621L244.938 260.604H246.709L243.77 269.121C243.318 270.365 242.553 270.987 241.473 270.987C241.231 270.987 240.965 270.946 240.673 270.864V269.579L240.987 269.6C241.407 269.6 241.721 269.522 241.931 269.367C242.145 269.217 242.313 268.962 242.437 268.602L242.676 267.966L240.078 260.604H241.869L243.435 265.621Z" fill="white"/>
<rect x="11" y="145" width="15" height="3" rx="1" fill="white" fill-opacity="0.3"/>
<rect x="11" y="138" width="15" height="3" rx="1" fill="white" fill-opacity="0.3"/>
<defs>
<linearGradient id="paint0_linear_199" x1="265" y1="22" x2="265" y2="322" gradientUnits="userSpaceOnUse">
<stop stop-color="#22CE53"/>
<stop offset="0.395833" stop-color="#121839"/>
<stop offset="0.9999" stop-color="#0F1532" stop-opacity="0.873684"/>
<stop offset="1" stop-opacity="0"/>
</linearGradient>
</defs>
</svg>
